<svg width="31" height="31" viewBox="0 0 31 31" fill="none" xmlns="http://www.w3.org/2000/svg">
<path fill-rule="evenodd" clip-rule="evenodd" d="M17.4537 2.6936V4.03319V4.99922C23.0969 5.93243 27.3532 10.7948 27.3532 16.7168C27.3532 23.3141 22.0711 28.5962 15.4738 28.5962C8.87662 28.5962 3.59448 23.3141 3.59448 16.7168C3.59448 16.3069 3.92689 15.9744 4.33694 15.9744C4.74699 15.9744 5.0794 16.3069 5.0794 16.7168C5.0794 22.494 9.69672 27.1113 15.4738 27.1113C21.2509 27.1113 25.8683 22.494 25.8683 16.7168C25.8683 11.6175 22.2708 7.42183 17.4537 6.50752V7.12677V8.46635L16.3178 7.75637L13.8538 6.2164C13.8469 6.21222 13.8399 6.20791 13.8331 6.20351L12.8355 5.57998L13.8331 4.95645C13.8399 4.95204 13.8469 4.94774 13.8538 4.94354L16.3178 3.40358L17.4537 2.6936Z" fill="black"/>
<path d="M12.6636 13.4047V22.6614H11.2624V14.8059H11.2082L8.99344 16.2522V14.9144L11.3031 13.4047H12.6636ZM17.3744 22.7879C16.808 22.7879 16.2987 22.6795 15.8467 22.4625C15.3978 22.2425 15.0392 21.9412 14.771 21.5585C14.5028 21.1759 14.3597 20.7389 14.3416 20.2478H15.6976C15.7307 20.6455 15.907 20.9725 16.2264 21.2286C16.5458 21.4847 16.9285 21.6128 17.3744 21.6128C17.73 21.6128 18.0449 21.5314 18.3191 21.3687C18.5963 21.203 18.8133 20.9755 18.9699 20.6862C19.1296 20.3969 19.2095 20.067 19.2095 19.6964C19.2095 19.3197 19.1281 18.9837 18.9654 18.6884C18.8027 18.3931 18.5782 18.1611 18.292 17.9924C18.0087 17.8236 17.6833 17.7378 17.3157 17.7347C17.0355 17.7347 16.7537 17.783 16.4705 17.8794C16.1872 17.9758 15.9582 18.1024 15.7835 18.2591L14.5043 18.0692L15.0241 13.4047H20.1135V14.6025H16.1857L15.8919 17.1924H15.9462C16.127 17.0176 16.3665 16.8715 16.6648 16.7539C16.9661 16.6364 17.2886 16.5777 17.6321 16.5777C18.1955 16.5777 18.6972 16.7118 19.1372 16.9799C19.5801 17.2481 19.9282 17.6142 20.1813 18.0783C20.4374 18.5393 20.5639 19.0696 20.5609 19.6692C20.5639 20.2689 20.4283 20.8037 20.1541 21.2738C19.883 21.7438 19.5063 22.1145 19.0242 22.3857C18.5451 22.6538 17.9952 22.7879 17.3744 22.7879Z" fill="black"/>
</svg>
