<svg width="31" height="31" viewBox="0 0 31 31" fill="none" xmlns="http://www.w3.org/2000/svg">
<path fill-rule="evenodd" clip-rule="evenodd" d="M13.4391 2.6936V4.03319V4.99922C7.79591 5.93243 3.53964 10.7948 3.53964 16.7168C3.53964 23.3141 8.82174 28.5962 15.419 28.5962C22.0162 28.5962 27.2983 23.3141 27.2983 16.7168C27.2983 16.3069 26.9659 15.9744 26.5559 15.9744C26.1458 15.9744 25.8134 16.3069 25.8134 16.7168C25.8134 22.494 21.1961 27.1113 15.419 27.1113C9.64191 27.1113 5.02456 22.494 5.02456 16.7168C5.02456 11.6175 8.62202 7.42183 13.4391 6.50752V7.12677V8.46635L14.5751 7.75637L17.039 6.2164C17.046 6.21222 17.0529 6.20791 17.0597 6.20351L18.0573 5.57998L17.0597 4.95645C17.0529 4.95204 17.046 4.94774 17.039 4.94354L14.5751 3.40358L13.4391 2.6936Z" fill="black"/>
<path d="M12.6089 13.4047V22.6614H11.2077V14.8059H11.1535L8.93876 16.2522V14.9144L11.2484 13.4047H12.6089ZM17.3198 22.7879C16.7533 22.7879 16.244 22.6795 15.792 22.4625C15.3431 22.2425 14.9845 21.9412 14.7163 21.5585C14.4481 21.1759 14.305 20.7389 14.2869 20.2478H15.6429C15.676 20.6455 15.8523 20.9725 16.1717 21.2286C16.4911 21.4847 16.8738 21.6128 17.3198 21.6128C17.6753 21.6128 17.9902 21.5314 18.2644 21.3687C18.5416 21.203 18.7586 20.9755 18.9153 20.6862C19.075 20.3969 19.1548 20.067 19.1548 19.6964C19.1548 19.3197 19.0735 18.9837 18.9107 18.6884C18.748 18.3931 18.5235 18.1611 18.2373 17.9924C17.954 17.8236 17.6286 17.7378 17.261 17.7347C16.9808 17.7347 16.699 17.783 16.4158 17.8794C16.1325 17.9758 15.9035 18.1024 15.7288 18.2591L14.4497 18.0692L14.9694 13.4047H20.0588V14.6025H16.131L15.8372 17.1924H15.8915C16.0723 17.0176 16.3118 16.8715 16.6101 16.7539C16.9115 16.6364 17.2339 16.5777 17.5774 16.5777C18.1409 16.5777 18.6426 16.7118 19.0825 16.9799C19.5254 17.2481 19.8735 17.6142 20.1266 18.0783C20.3827 18.5393 20.5093 19.0696 20.5062 19.6692C20.5093 20.2689 20.3737 20.8037 20.0995 21.2738C19.8283 21.7438 19.4516 22.1145 18.9695 22.3857C18.4904 22.6538 17.9405 22.7879 17.3198 22.7879Z" fill="black"/>
</svg>
