<svg width="23" height="22" viewBox="0 0 23 22" fill="none" xmlns="http://www.w3.org/2000/svg">
<path fill-rule="evenodd" clip-rule="evenodd" d="M11.9977 3.57494C10.204 3.46253 8.431 4.00869 7.01147 5.1109C5.59195 6.21311 4.62355 7.79556 4.28808 9.56117C3.95261 11.3268 4.27314 13.1541 5.18949 14.7002C5.28333 14.8585 5.30807 15.0484 5.25794 15.2255L4.4715 18.0031L7.24913 17.2167L7.43206 17.8627L7.77443 17.2851C9.32046 18.2015 11.1478 18.522 12.9134 18.1865C14.679 17.851 16.2615 16.8826 17.3637 15.4631C18.4659 14.0436 19.0121 12.2706 18.8997 10.4769C18.7872 8.68319 18.024 6.99222 16.7532 5.72141C15.4824 4.4506 13.7914 3.68735 11.9977 3.57494ZM7.34417 18.5855C9.11587 19.5568 11.1732 19.8841 13.1641 19.5059C15.2511 19.1093 17.1216 17.9647 18.4244 16.2867C19.7273 14.6088 20.3728 12.513 20.24 10.3929C20.1071 8.2727 19.2049 6.27393 17.7028 4.7718C16.2007 3.26967 14.2019 2.36749 12.0817 2.23461C9.96154 2.10174 7.86577 2.74733 6.18785 4.05016C4.50993 5.353 3.36526 7.22349 2.96873 9.31049C2.59045 11.3014 2.91782 13.3587 3.8891 15.1304L3.17744 17.6439C3.11115 17.8728 3.10732 18.1152 3.16636 18.346C3.2257 18.578 3.34633 18.7897 3.51562 18.959C3.68491 19.1283 3.89662 19.2489 4.12856 19.3082C4.35942 19.3673 4.60185 19.3634 4.83069 19.2971L7.34417 18.5855Z" fill="black"/>
<path fill-rule="evenodd" clip-rule="evenodd" d="M8.1874 9.5868C8.1874 9.21596 8.48803 8.91533 8.85888 8.91533H14.2307C14.6015 8.91533 14.9022 9.21596 14.9022 9.5868C14.9022 9.95765 14.6015 10.2583 14.2307 10.2583H8.85888C8.48803 10.2583 8.1874 9.95765 8.1874 9.5868Z" fill="black"/>
<path fill-rule="evenodd" clip-rule="evenodd" d="M8.1874 12.2727C8.1874 11.9019 8.48803 11.6012 8.85888 11.6012H14.2307C14.6015 11.6012 14.9022 11.9019 14.9022 12.2727C14.9022 12.6436 14.6015 12.9442 14.2307 12.9442H8.85888C8.48803 12.9442 8.1874 12.6436 8.1874 12.2727Z" fill="black"/>
</svg>
