<?xml version="1.0" encoding="utf-8"?>
<!-- Generator: Adobe Illustrator 28.0.0, SVG Export Plug-In . SVG Version: 6.00 Build 0)  -->
<svg version="1.1" id="Layer_1" xmlns="http://www.w3.org/2000/svg" xmlns:xlink="http://www.w3.org/1999/xlink" x="0px" y="0px"
	 viewBox="0 0 291.1 140" style="enable-background:new 0 0 291.1 140;" xml:space="preserve">
<style type="text/css">
	.st0{fill:#661E59;}
	.st1{fill:#68215B;stroke:#661E59;stroke-width:3.225806e-02;stroke-miterlimit:10;}
	.st2{fill:#6A245C;stroke:#661E59;stroke-width:6.451613e-02;stroke-miterlimit:10;}
	.st3{fill:#6B265D;stroke:#661E59;stroke-width:9.677419e-02;stroke-miterlimit:10;}
	.st4{fill:#6D2A5F;stroke:#661E59;stroke-width:0.129;stroke-miterlimit:10;}
	.st5{fill:#6E2D60;stroke:#661E59;stroke-width:0.1613;stroke-miterlimit:10;}
	.st6{fill:#703062;stroke:#661E59;stroke-width:0.1935;stroke-miterlimit:10;}
	.st7{fill:#713263;stroke:#661E59;stroke-width:0.2258;stroke-miterlimit:10;}
	.st8{fill:#733565;stroke:#661E59;stroke-width:0.2581;stroke-miterlimit:10;}
	.st9{fill:#743867;stroke:#661E59;stroke-width:0.2903;stroke-miterlimit:10;}
	.st10{fill:#763B68;stroke:#661E59;stroke-width:0.3226;stroke-miterlimit:10;}
	.st11{fill:#783E6A;stroke:#661E59;stroke-width:0.3548;stroke-miterlimit:10;}
	.st12{fill:#79406B;stroke:#661E59;stroke-width:0.3871;stroke-miterlimit:10;}
	.st13{fill:#7B436D;stroke:#661E59;stroke-width:0.4194;stroke-miterlimit:10;}
	.st14{fill:#7C466F;stroke:#661E59;stroke-width:0.4516;stroke-miterlimit:10;}
	.st15{fill:#7E4971;stroke:#661E59;stroke-width:0.4839;stroke-miterlimit:10;}
	.st16{fill:#804C73;stroke:#661E59;stroke-width:0.5161;stroke-miterlimit:10;}
	.st17{fill:#814E74;stroke:#661E59;stroke-width:0.5484;stroke-miterlimit:10;}
	.st18{fill:#835176;stroke:#661E59;stroke-width:0.5806;stroke-miterlimit:10;}
	.st19{fill:#855378;stroke:#661E59;stroke-width:0.6129;stroke-miterlimit:10;}
	.st20{fill:#87567A;stroke:#661E59;stroke-width:0.6452;stroke-miterlimit:10;}
	.st21{fill:#88587C;stroke:#661E59;stroke-width:0.6774;stroke-miterlimit:10;}
	.st22{fill:#8A5B7E;stroke:#661E59;stroke-width:0.7097;stroke-miterlimit:10;}
	.st23{fill:#8C5E80;stroke:#661E59;stroke-width:0.7419;stroke-miterlimit:10;}
	.st24{fill:#8E6182;stroke:#661E59;stroke-width:0.7742;stroke-miterlimit:10;}
	.st25{fill:#906484;stroke:#661E59;stroke-width:0.8065;stroke-miterlimit:10;}
	.st26{fill:#916685;stroke:#661E59;stroke-width:0.8387;stroke-miterlimit:10;}
	.st27{fill:#936988;stroke:#661E59;stroke-width:0.871;stroke-miterlimit:10;}
	.st28{fill:#956B8A;stroke:#661E59;stroke-width:0.9032;stroke-miterlimit:10;}
	.st29{fill:#976E8C;stroke:#661E59;stroke-width:0.9355;stroke-miterlimit:10;}
	.st30{fill:#9A718E;stroke:#661E59;stroke-width:0.9677;stroke-miterlimit:10;}
	.st31{fill:#9B7390;stroke:#661E59;stroke-miterlimit:10;}
	.st32{fill:#DEEFDC;}
	.st33{fill:#FFFFFF;}
	.st34{fill:none;}
	.st35{enable-background:new    ;}
	.st36{fill:#F58A6A;}
	.st37{fill:#976E8C;}
	.st38{fill:#FAC4B4;}
	.st39{fill:none;stroke:#661E59;stroke-width:4;stroke-miterlimit:10;}
	.st40{fill:#DEEFDC;stroke:#661E59;stroke-width:2;stroke-miterlimit:10;}
	.st41{fill:#661E59;stroke:#F58A6A;stroke-width:0.75;stroke-miterlimit:10;}
	.st42{fill:#FFFFFF;stroke:#FFFFFF;stroke-miterlimit:10;}
	.st43{fill:#B599AD;stroke:#661E59;stroke-miterlimit:10;}
	.st44{fill:#F58A6A;stroke:#F8AB93;stroke-miterlimit:10;}
	.st45{fill:#F5FAF4;}
	.st46{fill:#A48099;}
	.st47{fill:#FFFFFF;stroke:#661E59;stroke-miterlimit:10;}
	.st48{fill:#661E59;stroke:#F58A6A;stroke-miterlimit:10;}
	.st49{fill:#FCE2DA;}
	.st50{fill:#F58A6A;stroke:#661E59;stroke-miterlimit:10;}
	.st51{fill:#F58B6B;}
	.st52{fill:#661E59;stroke:#FFFFFF;stroke-width:0.5;stroke-miterlimit:10;}
	.st53{fill:#FBD0C3;}
	.st54{fill:#AF90A6;}
	.st55{fill:#E2D8DF;}
	.st56{fill:#C2C2C2;}
	.st57{fill:#414042;}
	.st58{fill:#EAC5DE;}
	.st59{fill:#C49A6C;}
	.st60{fill:#ED1C24;}
	.st61{fill:#EDDCE8;}
	.st62{fill:#FDE3DB;}
	.st63{fill:#FAC1B0;}
	.st64{fill:#DA1C5C;}
	.st65{fill:#FAC7B8;}
	.st66{fill:#00BDF2;}
	.st67{fill:#9F9AA8;}
	.st68{fill:#FFFFFF;stroke:#000000;stroke-miterlimit:10;}
	.st69{fill:#ECC9C4;}
	.st70{fill:#FEFEFE;}
	.st71{fill:#D9D9D9;}
	.st72{opacity:0.4;fill:#F58B6B;}
	.st73{opacity:0.7;fill:#ECC9C4;}
	.st74{opacity:0.4;}
	.st75{fill:#EFB6A5;}
	.st76{fill:#E9E9E9;}
	.st77{fill:#E6E6E6;}
	.st78{fill:#E8E8E8;}
	.st79{fill:#661E59;stroke:#F58A6A;stroke-width:0.5;stroke-miterlimit:10;}
	.st80{fill:#FFFFFF;stroke:#F58A6A;stroke-width:0.25;stroke-miterlimit:10;}
	.st81{fill:#F58A6A;stroke:#F58A6A;stroke-width:0.25;stroke-miterlimit:10;}
	.st82{fill:#F58A6A;stroke:#661E59;stroke-width:0.5;stroke-miterlimit:10;}
	.st83{fill:#FFFFFF;stroke:#661E59;stroke-width:0.25;stroke-miterlimit:10;}
	.st84{fill:#661E59;stroke:#661E59;stroke-width:0.25;stroke-miterlimit:10;}
	.st85{fill:#F9B4A0;stroke:#661E59;stroke-width:0.5;stroke-miterlimit:10;}
	.st86{fill:#F58A6A;stroke:#661E59;stroke-width:0.25;stroke-miterlimit:10;}
	.st87{fill:#FFFFFF;stroke:#F6AB3D;stroke-width:0.25;stroke-miterlimit:10;}
	.st88{fill:#AF90A6;stroke:#661E59;stroke-width:0.5;stroke-miterlimit:10;}
	.st89{fill:#D2C3CE;stroke:#F58A6A;stroke-width:0.5;stroke-miterlimit:10;}
	.st90{fill:#F6AB3D;stroke:#F58A6A;stroke-width:0.25;stroke-miterlimit:10;}
	.st91{fill:#FCE2DA;stroke:#661E59;stroke-width:4;stroke-miterlimit:10;}
</style>
<g>
	<path class="st32" d="M253.6,69.1c-0.9-1.4-2.3-2.4-3.9-2.8c-1.6-0.4-3-1.1-4.2-2.2c-0.8-0.7-1.5-1.8-2.4-3c-0.2-0.4-0.5-0.7-0.7-1
		c-1.5-2.2-3.7-4.9-7.3-6.1c-4.3-1.5-8.4-0.1-11.5,1.2c-1.7,0.8-3.4,1.6-5,2.7c-0.4-0.1-0.8-0.2-1.3-0.3c-1.2-0.2-2.3-0.3-3.4-0.3
		c-0.1-0.4-0.2-0.8-0.4-1.2c-0.2-0.5-0.5-1.1-0.7-1.6c0.5-0.7,1-1.5,1.3-2.3c0.8-2,1.1-3.8,0.7-5.5c-0.7-3.3-3.5-5.5-7.1-5.5
		c-0.6,0-1.2,0-1.6,0.1c-0.2,0-0.5,0-0.7,0c1.3-3.6,0-6-1.1-7.3c-1.4-1.6-3.1-2.2-4-2.5l-0.1,0c-0.9-0.3-1.8-0.5-2.8-0.7
		c-2.4-0.5-4.9-0.4-7.3,0c-0.3-1.6-1.1-3-2.4-4c-2.8-2.2-6.1-1.5-7.5-1.1c-2.6,0.6-5,1.7-7,3.3c-3.4,0.3-6.1,1.6-8.1,3.9
		c-0.7,0.8-1.3,1.7-1.7,2.7c-0.7,0.5-1.4,1.1-2,1.6c0.2-0.9,0.3-1.8,0.3-2.8c0-6.7-5.4-12.1-12.1-12.1c-2.1,0-4.1,0.6-5.9,1.5
		c-1.8-1-3.8-1.5-5.9-1.5c-6.7,0-12.1,5.4-12.1,12.1c0,0.4,0,0.9,0.1,1.3c-0.1,0-0.1-0.1-0.2-0.1c-0.4-0.9-1-1.9-1.7-2.7
		c-1.9-2.3-4.6-3.6-8.1-3.9c-2.1-1.6-4.5-2.7-7.1-3.3c-1.3-0.3-4.6-1.1-7.4,1.1c-1.2,1-2.1,2.4-2.4,4c-2.4-0.5-4.9-0.5-7.3,0
		c-0.9,0.2-1.8,0.4-2.7,0.7l-0.1,0c-0.9,0.3-2.6,0.9-4,2.5c-1.1,1.3-2.4,3.7-1.1,7.3c0,0,0,0,0,0c-0.1,0-0.4,0-0.7,0
		c-0.4,0-1-0.1-1.7-0.1c0,0,0,0,0,0c-3.5,0-6.3,2.3-7,5.5c-0.5,2.5,0.4,4.7,0.7,5.4c0.3,0.8,0.8,1.6,1.3,2.3
		c-0.3,0.5-0.5,1.1-0.8,1.6c-0.2,0.4-0.3,0.8-0.3,1.2c-1.1,0-2.2,0.1-3.4,0.3c-0.4,0.1-0.9,0.2-1.3,0.3c-1.6-1-3.3-1.9-5-2.7
		c-3.1-1.3-7.1-2.7-11.4-1.2c-3.6,1.2-5.8,3.9-7.3,6.1c-0.2,0.3-0.5,0.7-0.7,1c-0.8,1.3-1.6,2.3-2.4,3.1c-1.2,1.1-2.6,1.8-4.2,2.2
		c-3.3,0.8-5.5,4.2-4.8,7.6c1.1,4.9,5.5,8.2,11.7,8.6c1.5,0.1,3.1,0,4.6-0.2c0.6,0.6,1.3,1.1,2.1,1.5c0.2,0.1,0.4,0.2,0.6,0.2
		c0,0.8,0.1,1.7,0.2,2.5c-1.7,1.5-3,3.4-3.7,5.5c-1.8,5.3,0.4,10.4,1.5,12.9c0.6,1.3,1.3,2.9,2.1,4.5c0.5,0.9,1,1.7,1.5,2.4
		c0.6,0.8,1.4,2,2.7,3c3.6,2.7,7.8,1.4,9.3,0.9c1.2-0.4,2.3-0.8,3.2-1.3c1.1,1.1,2.5,2,4,2.5c1.3,0.5,2.6,0.6,3.8,0.6
		c3.5,0,6.4-1.6,7.6-2.2c2.3-1.2,3.6-2.8,4.2-4.3c1.4,0.8,2.8,1.2,3.8,1.4l0.1,0c2.9,0.9,5.5,0.9,7.8,0.2c1.2-0.3,2.2-0.8,3-1.4
		c0,0,0,0,0,0c2,2.6,5,2.9,6,3c2.4,0.2,5-0.1,7.4-0.8c1.7-0.5,6.8-2.1,7.6-7.4c0.2-1.5-0.1-2.8-0.2-3.7l-0.1-0.4
		c-0.2-0.8-0.3-1.6-0.5-2.3c-0.9-3.5-2.1-6.8-3.8-9.6c-0.9-1.5-1.8-2.9-2.9-4.1c1-1.7,1.9-3.4,2.4-5.3c0.4-1.2,0.6-2.4,0.9-3.5
		c0.9,0.4,1.8,0.8,2.8,1c2.2,0.7,5.2,1.3,8.3,0.5c2.9-0.8,5.4-2.9,7.2-5.9c0.7-1.3,1.3-2.7,1.6-4.2c1.3-0.9,2.3-2,3.1-3.2
		c0.8,1.2,1.8,2.3,3.1,3.2c0.3,1.5,0.9,2.9,1.6,4.2c1.7,3,4.3,5.1,7.1,5.9c3,0.8,5.9,0.2,8.3-0.5c1-0.3,1.9-0.6,2.8-1.1
		c0.2,1.1,0.5,2.3,0.9,3.5c0.6,1.8,1.4,3.6,2.4,5.3c-1.1,1.2-2,2.6-2.9,4.1c-1.6,2.8-2.9,6.1-3.8,9.6c-0.2,0.8-0.4,1.6-0.5,2.4
		l0,0.3c-0.2,0.9-0.4,2.2-0.2,3.8c0.2,1.3,0.7,5.3,7.7,7.4c2.4,0.7,4.9,1,7.3,0.8c1-0.1,3.9-0.3,6-3c0,0,0,0,0,0
		c0.8,0.6,1.8,1.1,3,1.4c3.1,0.9,5.9,0.3,7.8-0.2l0.1,0c1-0.3,2.4-0.7,3.8-1.4c0.6,1.5,1.9,3,4.2,4.3c1.2,0.6,4.1,2.2,7.6,2.2
		c1.2,0,2.5-0.2,3.7-0.6c1.6-0.6,3-1.4,4-2.6c1,0.5,2.1,1,3.3,1.4c1.4,0.4,5.6,1.7,9.2-0.9c1.3-1,2.1-2.1,2.6-2.8l0.1-0.1
		c0.5-0.7,1-1.5,1.5-2.4c0.8-1.5,1.5-3.1,2.1-4.6c1-2.5,3.2-7.6,1.5-12.8c-0.7-2.2-2-4.1-3.7-5.5c0.1-0.8,0.2-1.6,0.2-2.5
		c0.2-0.1,0.4-0.1,0.5-0.2c0.8-0.4,1.5-0.9,2.1-1.5c1.5,0.2,3.1,0.3,4.6,0.2c6.1-0.4,10.6-3.7,11.7-8.6
		C254.8,72.3,254.5,70.5,253.6,69.1z M149.4,34.1c0,0,0.1-0.3,0.4-0.3c0.2,0,0.5,0.2,0.5,0.5c0,0.1,0,0.1,0,0.2l-1.2,0.7L149.4,34.1
		z M138.1,33.9c0.3,0,0.4,0.2,0.4,0.3l0.4,1.1l-1.2-0.7c0-0.1,0-0.1,0-0.2C137.6,34.1,137.8,33.9,138.1,33.9z M55.9,67.8
		c0.1-0.1,0.1-0.2,0.2-0.3c0.2-0.3,0.4-0.6,0.6-0.9c1-1.4,1.4-1.6,1.5-1.6c0,0,0.1,0,0.2,0c0.2,0,0.8,0.1,1.8,0.5L55.9,67.8z
		 M98.5,98.9l-0.1,0.5c-0.1,0.6-0.2,1.4-0.3,2c-0.1,0-0.1,0-0.2-0.1l0.7-2.7C98.5,98.8,98.5,98.9,98.5,98.9z M134.9,59.1
		c-0.1,0-0.2,0.1-0.4,0.2l-4.6,1.3l0.4,4.8c0,0.5-0.1,1.1-0.4,1.6c-0.1,0.2-0.2,0.3-0.3,0.4c-0.3,0-0.8-0.1-1.7-0.4
		c-1.5-0.4-2.7-1.2-3.1-2l-3.5-7.1l-5.7,5.4c-2.1,1.9-3.5,4.5-4.4,7.8c-0.3,1.1-0.5,2.2-0.7,3.2c-0.2,1.1-0.4,2-0.7,2.9
		c-0.4,1.2-0.9,2.3-1.7,3.3c-0.5,0.7-1.1,1.4-1.8,2.1l-5,5.2l6.1,3.8c1.2,0.7,2.3,1.9,3.3,3.4c-1-1.1-2.2-2-3.6-2.6l-7.1-3.4
		l-0.6,4.2l-7.7,1.7v-5.5l-6.3,0.5c-1.2,0.1-2.5,0.1-3.7-0.1l-9.4-1.3L76,99.1c-0.5-0.7-1-1.4-1.5-2l-2-2.5l-3,0.3h0
		c-0.1,0-0.3,0-0.4,0l-4.6-0.3l4.1-1.1l-2.2-6c-0.5-1.4-0.7-3-0.7-4.7c0-2,0.3-3.9,0.8-5.6l1.4-4.6l-4.2-2.3c-0.6-0.4-1.3-0.6-2-0.7
		l0.3-3.2c1.5,0.7,3,1.6,4.3,2.7l2.8,2.1l3.2-1.4c0.6-0.3,1.2-0.4,1.7-0.5c1.4-0.2,3.1-0.1,4.5,0.1l1.4,0.2l1.3-0.5
		c1.7-0.6,3.6-1.4,5.3-2.8c0.4-0.4,1.1-0.9,1.7-1.7c0.5-0.6,1.8-2.4,1.6-4.9l0-0.2c-0.1-0.4-0.2-0.8-0.3-1.2l6.8-4.2l-4.1-2.3
		c2.1-0.8,5.9-2.8,6.3-7.3l0.1-1.3c0,0,0,0,0.1,0l2.4,1.1l2.4-1.1c1.2-0.5,2.5-1,3.9-1.3l3.9-1l0.1,0.1l2.6-0.1c0.4,0,0.7,0,1,0
		l0.1,2.4l3.2,1.6c0.8,0.4,1.7,1.2,2.7,2.1c1.1,1,2,2.2,2.8,3.5c0.1,0.2,0.2,0.4,0.3,0.7c0.3,0.5,0.6,1.2,1,1.9
		c1.6,2.4,4.1,3.8,7,3.9c0.3,0,0.6,0,0.9,0c0.4,0,0.8,0,0.9,0c0.3,0,0.4,0.1,0.4,0.1c0,0,0.2,0.2,0.3,0.6
		C134.9,58,134.9,58.7,134.9,59.1z M191.4,101.5c-0.1-0.6-0.3-1.5-0.3-2.1l0-0.4l0.6,2.4C191.5,101.5,191.4,101.5,191.4,101.5z
		 M225.7,70.2l-4.1,2.3l1.4,4.5c0.5,1.8,0.8,3.7,0.8,5.7c0,1.7-0.2,3.4-0.7,4.7l-2.2,6.1l4.1,1.1l-4.6,0.3c-0.2,0-0.3,0-0.5,0
		l-3-0.3l-2,2.5c-0.5,0.6-1,1.3-1.5,2c0.2-0.6,0.4-1.1,0.6-1.7l3.2-9l-9.4,1.3c-1.2,0.2-2.4,0.2-3.7,0.1l-6.3-0.5v5.5l-7.7-1.7
		l-0.6-4.2l-7.1,3.4c-1.4,0.7-2.5,1.5-3.6,2.6c1-1.5,2.1-2.6,3.3-3.4l6.1-3.8l-5-5.2c-0.7-0.7-1.3-1.4-1.8-2.1
		c-0.8-1-1.3-2.2-1.7-3.3c-0.3-0.9-0.5-1.9-0.7-3c-0.2-1-0.4-2-0.7-3.1c-0.9-3.3-2.4-5.9-4.4-7.8l-5.7-5.4l-3.5,7.1
		c-0.4,0.8-1.6,1.6-3.1,2.1c-0.9,0.3-1.4,0.4-1.7,0.4c-0.1-0.1-0.2-0.2-0.3-0.4c-0.3-0.5-0.4-1.1-0.4-1.6l0.4-4.8l-4.6-1.3
		c-0.2-0.1-0.3-0.1-0.4-0.2c0-0.3,0-1,0.2-1.8c0.1-0.4,0.3-0.6,0.3-0.6c0,0,0.2-0.1,0.4-0.1c0.2,0,0.6,0,1,0c0.3,0,0.6,0,0.9,0
		c3-0.1,5.5-1.4,7-3.8c0.5-0.7,0.8-1.4,1.1-1.9c0.1-0.2,0.2-0.4,0.3-0.7c0.8-1.3,1.7-2.5,2.8-3.6c0.9-0.8,1.9-1.7,2.7-2.1l3.2-1.6
		l0.1-2.4c0.2,0,0.5,0,1,0l2.6,0.1l0.1-0.1l4,1c1.4,0.3,2.7,0.8,3.9,1.3l2.4,1.1l2.4-1.1c0,0,0,0,0.1,0l0.1,1.3
		c0.4,4.5,4.2,6.4,6.3,7.3l-4.1,2.3l6.8,4.2c-0.1,0.4-0.2,0.8-0.3,1.2l0,0.2c-0.3,2.5,1,4.2,1.5,4.8l0.1,0.1
		c0.6,0.8,1.2,1.3,1.7,1.7c1.8,1.4,3.7,2.3,5.4,2.9l1.3,0.5l1.4-0.2c1.4-0.2,3.1-0.3,4.5-0.1c0.6,0.1,1.1,0.3,1.7,0.5l3.1,1.4
		l2.8-2.1c1.4-1,2.8-1.9,4.3-2.6l0.4,3.2C227,69.6,226.3,69.8,225.7,70.2z M229.3,65.4c1.5-0.5,1.9-0.5,2-0.4c0,0,0.5,0.2,1.5,1.6
		c0.2,0.3,0.4,0.6,0.6,0.9c0.1,0.1,0.1,0.2,0.2,0.2L229.3,65.4z"/>
	<path class="st0" d="M210.9,118.9c-3.9,0-7-1.7-8.2-2.4c-1.8-1-3.2-2.2-4.1-3.7c-1.1,0.5-2.1,0.7-2.8,1l-0.1,0
		c-2,0.6-5.1,1.2-8.5,0.2c-0.9-0.3-1.7-0.6-2.4-1c-2.3,2.2-5.1,2.5-6.1,2.6c-2.6,0.2-5.3-0.1-7.9-0.9c-5.1-1.6-8-4.5-8.6-8.5
		c-0.3-1.8,0.1-3.3,0.2-4.2l0-0.3c0.1-0.7,0.3-1.6,0.5-2.4c0.9-3.7,2.2-7,3.9-10c0.7-1.3,1.6-2.5,2.4-3.6c-0.9-1.5-1.6-3.1-2.1-4.8
		c-0.2-0.7-0.4-1.4-0.6-2.1c-0.5,0.2-1,0.3-1.4,0.5c-2.6,0.8-5.7,1.4-9,0.5c-3.2-0.9-6-3.2-7.9-6.5c-0.7-1.3-1.3-2.6-1.6-4
		c-0.7-0.5-1.4-1.1-1.9-1.8c-0.6,0.7-1.2,1.3-1.9,1.8c-0.4,1.4-0.9,2.8-1.6,4c-1.9,3.3-4.7,5.7-8,6.5c-3.4,0.9-6.6,0.2-9-0.5
		c-0.5-0.1-1-0.3-1.4-0.5c-0.2,0.7-0.3,1.4-0.6,2.1c-0.5,1.6-1.2,3.2-2.1,4.8c0.9,1.1,1.7,2.3,2.4,3.6c1.7,3,3,6.3,3.9,10
		c0.2,0.8,0.4,1.6,0.5,2.4l0.1,0.4c0.2,0.9,0.5,2.3,0.2,4.1c-0.6,4.1-3.4,7-8.5,8.5c-2.5,0.8-5.3,1.1-7.9,0.9
		c-1-0.1-3.8-0.3-6.1-2.6c-0.7,0.4-1.5,0.7-2.4,1c-2.6,0.8-5.4,0.7-8.6-0.2c-0.8-0.2-1.8-0.5-2.9-1c-0.9,1.5-2.3,2.7-4.1,3.7
		c-1.2,0.6-4.3,2.3-8.2,2.3c-1.5,0-2.9-0.2-4.2-0.7c-1.4-0.5-2.7-1.2-3.8-2.2c-0.9,0.4-1.7,0.7-2.6,1c-1.6,0.5-6.3,1.9-10.4-1.1
		c-1.5-1.1-2.5-2.5-3-3.3c-0.5-0.7-1-1.5-1.5-2.5c-0.9-1.7-1.6-3.3-2.2-4.6c-1.1-2.6-3.4-8.1-1.5-13.8c0.7-2.1,1.9-4.1,3.6-5.6
		c0-0.3-0.1-0.7-0.1-1.1c-0.7-0.3-1.3-0.7-1.8-1.2c-1.4,0.2-2.8,0.2-4.3,0.1c-6.8-0.5-11.7-4.2-12.9-9.6c-0.8-4.1,1.7-8.2,5.7-9.2
		c1.4-0.3,2.6-1,3.6-1.9c0.7-0.6,1.4-1.7,2.2-2.8c0.2-0.3,0.5-0.7,0.7-1c1.6-2.4,4-5.2,8-6.6c4.7-1.6,9.1-0.2,12.4,1.2
		c1.6,0.7,3.2,1.5,4.7,2.5c0.3-0.1,0.5-0.1,0.8-0.2c0.8-0.1,1.7-0.2,2.6-0.3c0-0.1,0.1-0.2,0.1-0.4c0.1-0.4,0.3-0.7,0.5-1
		c-0.4-0.6-0.7-1.2-1-1.9c-0.9-2.2-1.2-4.3-0.8-6.2c0.8-3.9,4.2-6.5,8.3-6.6c0.2,0,0.5,0,0.7,0c-0.5-3.3,0.9-5.6,1.8-6.7
		c1.6-1.9,3.7-2.6,4.6-2.9l0.1,0c0.9-0.3,1.8-0.6,2.8-0.8c2.2-0.4,4.4-0.5,6.6-0.2c0.5-1.4,1.4-2.6,2.5-3.5c3.3-2.6,7.2-1.7,8.5-1.4
		c2.7,0.6,5.1,1.7,7.3,3.3c3.4,0.4,6.2,1.7,8.3,4c1.3-6.1,6.7-10.8,13.2-10.8c2,0,4,0.5,5.9,1.4c1.8-0.9,3.9-1.4,5.9-1.4
		c7.1,0,12.9,5.5,13.4,12.5c0.3-0.5,0.6-0.9,1-1.4c2.1-2.5,5-3.9,8.6-4.3c2.2-1.6,4.6-2.7,7.2-3.3c1.4-0.3,5.3-1.2,8.6,1.4
		c1.1,0.9,2,2.1,2.5,3.5c2.2-0.3,4.4-0.2,6.6,0.2c1.1,0.2,2,0.5,2.9,0.8l0.1,0c0.9,0.3,3,1,4.6,2.9c1,1.2,2.4,3.4,1.8,6.7
		c0.2,0,0.4,0,0.6,0c4.2,0.1,7.5,2.7,8.4,6.6c0.4,2,0.2,4-0.8,6.3c-0.3,0.6-0.6,1.3-1,1.8c0.2,0.3,0.3,0.7,0.4,1
		c0.1,0.1,0.1,0.3,0.2,0.4c0.9,0,1.8,0.1,2.6,0.3c0.3,0,0.5,0.1,0.8,0.2c1.5-0.9,3.1-1.8,4.7-2.5c3.3-1.4,7.7-2.9,12.4-1.2
		c4,1.3,6.3,4.2,8,6.6c0.2,0.3,0.5,0.7,0.7,1c0.8,1.2,1.5,2.2,2.2,2.8c1,0.9,2.3,1.6,3.6,1.9c2,0.5,3.7,1.7,4.7,3.4
		c1.1,1.7,1.4,3.8,1,5.8c-1.2,5.4-6.1,9.1-12.9,9.6c-1.4,0.1-2.8,0.1-4.2-0.1c-0.6,0.5-1.2,0.9-1.8,1.2c0,0.4-0.1,0.7-0.1,1.1
		c1.6,1.6,2.9,3.5,3.6,5.6c1.9,5.8-0.4,11.2-1.5,13.8c-0.6,1.5-1.3,3.1-2.2,4.7c-0.5,0.9-1,1.8-1.6,2.6l-0.1,0.1
		c-0.5,0.8-1.5,2.1-2.9,3.1c-4.1,3-8.8,1.6-10.4,1.1c-0.9-0.3-1.8-0.6-2.7-1c-1.1,1-2.4,1.7-3.9,2.2
		C213.7,118.6,212.3,118.9,210.9,118.9z M199.7,109.2l0.6,1.4c0.6,1.5,1.8,2.7,3.6,3.6c1.1,0.6,3.8,2,7,2c1.1,0,2.3-0.2,3.3-0.6
		c1.4-0.5,2.6-1.3,3.5-2.2l0.7-0.7l0.9,0.4c1.1,0.5,2.1,1,3.1,1.3c1.3,0.4,4.9,1.5,8-0.7c1.1-0.8,1.8-1.8,2.3-2.5l0.1-0.1
		c0.5-0.7,0.9-1.4,1.4-2.3c0.8-1.5,1.5-3,2.1-4.5c1-2.3,3-7.1,1.4-11.9c-0.6-1.9-1.8-3.6-3.3-4.9l-0.5-0.5l0.1-0.7
		c0.1-0.8,0.2-1.6,0.2-2.4l0-0.9l0.9-0.3c0.1,0,0.3-0.1,0.4-0.2c0.6-0.3,1.2-0.7,1.7-1.2l0.5-0.5l0.7,0.1c1.4,0.2,2.9,0.3,4.3,0.2
		c5.5-0.4,9.6-3.3,10.5-7.5c0.3-1.3,0.1-2.7-0.7-3.8l0,0c-0.7-1.1-1.8-1.9-3.1-2.2c-1.8-0.4-3.4-1.3-4.8-2.5c-0.9-0.8-1.7-2-2.6-3.3
		c-0.2-0.4-0.5-0.7-0.7-1c-1.4-2-3.4-4.5-6.6-5.6c-3.9-1.3-7.7-0.1-10.5,1.2c-1.7,0.7-3.3,1.6-4.8,2.6l-0.5,0.3l-0.5-0.1
		c-0.4-0.1-0.8-0.2-1.2-0.2c-1-0.2-2.1-0.3-3.2-0.3l-1.1,0l-0.2-1.1c-0.1-0.3-0.2-0.6-0.3-0.9c-0.2-0.5-0.4-1-0.7-1.5l-0.4-0.7
		l0.5-0.7c0.5-0.6,0.9-1.3,1.2-2c0.7-1.7,0.9-3.2,0.6-4.7c-0.6-2.7-2.9-4.4-5.8-4.5c-0.6,0-1.1,0-1.5,0.1c-0.3,0-0.6,0-0.8,0l-1.9,0
		l0.7-1.8c1-2.9,0.1-4.8-0.9-6c-1.1-1.3-2.6-1.8-3.4-2.1l-0.1,0c-0.8-0.3-1.7-0.5-2.6-0.7c-2.2-0.4-4.5-0.4-6.8,0l-1.3,0.3l-0.3-1.3
		c-0.2-1.3-0.9-2.4-1.9-3.2c-2.3-1.8-5.1-1.2-6.3-0.9c-2.4,0.5-4.6,1.6-6.5,3.1l-0.3,0.2l-0.4,0c-3.1,0.3-5.5,1.5-7.2,3.5
		c-0.6,0.7-1.1,1.5-1.5,2.3l-0.1,0.3l-0.3,0.2c-0.6,0.4-1.2,0.9-1.9,1.5l-3.1,2.8l0.9-4.1c0.2-0.8,0.3-1.6,0.3-2.5
		c0-6-4.9-10.8-10.8-10.8c-1.8,0-3.6,0.5-5.2,1.4l-0.6,0.4l-0.6-0.4c-1.6-0.9-3.4-1.4-5.2-1.4c-6,0-10.8,4.9-10.8,10.8
		c0,0.4,0,0.7,0.1,1.2l0.3,3l-2.4-1.8c0,0-0.1-0.1-0.1-0.1l-0.3-0.2l-0.2-0.3c-0.4-0.8-0.9-1.6-1.5-2.3c-1.7-2-4.1-3.1-7.2-3.4
		l-0.4,0l-0.3-0.2c-1.9-1.5-4.2-2.5-6.6-3.1c-1.2-0.3-4-0.9-6.3,0.9c-1,0.8-1.7,1.9-1.9,3.2l-0.3,1.3L99,32c-2.2-0.4-4.5-0.4-6.8,0
		c-0.8,0.2-1.7,0.4-2.5,0.7l-0.2,0.1c-0.8,0.3-2.3,0.7-3.4,2.1c-1,1.2-1.9,3.1-0.9,6l0.6,1.8H84c-0.2,0-0.5,0-0.8,0
		c-0.4,0-1-0.1-1.6-0.1c-2.8,0-5.2,1.8-5.7,4.5c-0.5,2.1,0.4,4,0.6,4.6c0.3,0.7,0.7,1.4,1.2,2l0.5,0.7L77.8,55
		c-0.3,0.5-0.5,1-0.7,1.5c-0.1,0.3-0.2,0.6-0.3,0.9l-0.2,1.1l-1.1,0c-1.1,0-2.2,0.1-3.2,0.3c-0.4,0.1-0.8,0.1-1.2,0.2l-0.5,0.1
		l-0.5-0.3c-1.5-1-3.2-1.8-4.9-2.6c-2.8-1.2-6.6-2.5-10.5-1.2c-3.3,1.1-5.3,3.6-6.7,5.6c-0.2,0.3-0.5,0.7-0.7,1
		c-0.9,1.3-1.7,2.5-2.6,3.3c-1.3,1.2-3,2.1-4.8,2.5c-2.6,0.6-4.3,3.3-3.8,6.1c0.9,4.3,5,7.2,10.5,7.6c1.4,0.1,2.9,0,4.3-0.2l0.7-0.1
		l0.5,0.5c0.5,0.5,1,0.9,1.7,1.2c0.1,0.1,0.3,0.1,0.4,0.2l0.9,0.3l0,0.9c0,0.8,0.1,1.6,0.2,2.4l0.1,0.7l-0.5,0.5
		c-1.5,1.3-2.7,3.1-3.3,5c-1.6,4.8,0.4,9.6,1.4,11.9c0.6,1.3,1.2,2.9,2.1,4.4c0.5,0.9,0.9,1.6,1.4,2.2c0.5,0.8,1.3,1.8,2.4,2.7
		c3.1,2.3,6.7,1.1,8.1,0.7c1-0.3,2-0.7,3-1.3l0.9-0.4l0.7,0.7c1,1,2.2,1.7,3.5,2.2c1.1,0.4,2.2,0.6,3.3,0.6c3.2,0,5.9-1.5,6.9-2
		c1.8-1,3-2.2,3.6-3.6l0.6-1.3l1.3,0.7c1.2,0.7,2.5,1.1,3.5,1.3l0.1,0c2.7,0.8,5,0.9,7.1,0.3c1-0.3,1.9-0.7,2.6-1.2l1-0.7l0.8,1
		c1.7,2.2,4.1,2.4,5.1,2.5c2.3,0.2,4.7-0.1,6.9-0.8c2.6-0.8,6.1-2.3,6.7-6.4c0.2-1.3,0-2.4-0.2-3.2l-0.1-0.4
		c-0.1-0.8-0.3-1.5-0.5-2.3c-0.8-3.4-2.1-6.5-3.6-9.3c-0.8-1.4-1.8-2.8-2.8-3.9l-0.6-0.7l0.5-0.8c1-1.6,1.7-3.2,2.3-5
		c0.4-1.2,0.6-2.4,0.8-3.4l0.3-1.6l1.5,0.7c0.8,0.4,1.7,0.7,2.6,1c2.1,0.6,4.8,1.2,7.6,0.5c2.5-0.7,4.8-2.6,6.4-5.3
		c0.7-1.2,1.2-2.5,1.4-3.8l0.1-0.5l0.4-0.3c1.1-0.8,2-1.7,2.7-2.8l1.1-1.7l1.1,1.7c0.7,1.1,1.6,2.1,2.8,2.8l0.4,0.3l0.1,0.5
		c0.3,1.3,0.8,2.6,1.4,3.8c1.6,2.7,3.8,4.6,6.3,5.3c2.7,0.8,5.4,0.2,7.6-0.5c0.9-0.3,1.8-0.6,2.6-1l1.5-0.7l0.3,1.6
		c0.2,1.1,0.5,2.2,0.9,3.4c0.5,1.7,1.3,3.4,2.3,5l0.5,0.8l-0.6,0.7c-1,1.2-1.9,2.5-2.8,3.9c-1.6,2.7-2.8,5.9-3.6,9.3
		c-0.2,0.8-0.4,1.6-0.5,2.3l-0.1,0.3c-0.2,0.9-0.4,2-0.2,3.4c0.2,1.2,0.6,4.4,6.7,6.3c2.2,0.7,4.6,0.9,6.8,0.8
		c0.9-0.1,3.3-0.3,5-2.5l0.1-0.1l0.8-0.8l0.9,0.6c0.8,0.5,1.7,1,2.6,1.2c2.7,0.8,5.3,0.2,7-0.2l0.1,0c1-0.3,2.2-0.6,3.5-1.3
		L199.7,109.2z M209.1,107.5l6.1-17.5l-7.3,1c-1.3,0.2-2.6,0.2-4,0.1l-4.9-0.4v5.8l-10.2-2.3l-0.5-3.4l-5.5,2.7
		c-1.2,0.6-2.3,1.4-3.2,2.3l-2.1-1.6c1.1-1.6,2.3-2.9,3.7-3.7l4.7-2.9l-3.9-4c-0.7-0.8-1.4-1.5-1.9-2.3c-0.9-1.2-1.5-2.4-1.9-3.7
		c-0.3-0.9-0.5-2-0.7-3.1c-0.2-1-0.4-2-0.7-3.1c-0.9-3.1-2.2-5.4-4-7.2l-4.4-4.2l-2.7,5.5c-0.6,1.2-2,2.2-3.9,2.7
		c-0.8,0.2-1.4,0.4-1.9,0.4l-0.7,0.1l-0.5-0.6c-0.1-0.1-0.3-0.3-0.4-0.6c-0.4-0.7-0.6-1.6-0.5-2.4l0.3-3.7l-3.6-1
		c-0.2-0.1-0.4-0.1-0.6-0.2l-0.7-0.3l-0.1-0.7c-0.1-0.6,0-1.5,0.3-2.3c0.2-0.5,0.4-0.9,0.6-1.2l0.1-0.1l0.2-0.1
		c0.2-0.1,0.5-0.2,0.8-0.3c0.3,0,0.6,0,1.1,0l0.1,0c0.3,0,0.6,0,0.9,0c2.5,0,4.6-1.2,5.9-3.2c0.4-0.6,0.7-1.3,1-1.8l0.1-0.1
		c0.1-0.2,0.2-0.4,0.3-0.6c0.8-1.4,1.8-2.7,3-3.9c1-0.9,2-1.9,3-2.4l2.5-1.2l0.1-2.8l1.2-0.1c0.3,0,0.7,0,1.1,0l2,0.1l0.2-0.2
		l4.7,1.2c1.5,0.4,2.8,0.8,4.1,1.4l1.9,0.8l3.6-1.6l0.3,3.1c0.2,2.7,2.1,4.8,5.5,6.2l2.6,1l-4.6,2.6l5.8,3.6l-0.4,1
		c-0.1,0.3-0.2,0.6-0.2,1l0,0.1c-0.2,1.9,0.8,3.4,1.2,3.9l0.1,0.1c0.5,0.6,1,1.1,1.5,1.5c1.6,1.3,3.4,2.1,5,2.6l1,0.4l1.1-0.1
		c1.5-0.2,3.3-0.3,4.9,0c0.7,0.1,1.4,0.3,2,0.6l2.4,1.1l2.1-1.6c1.3-1,2.7-1.9,4.1-2.6l-0.2-0.1l1.6-0.6l0.6-0.3l0,0.1l0.4-0.2
		c1.8-0.7,2.5-0.6,2.9-0.5c0.4,0.1,1,0.5,2.1,2.2c0.2,0.3,0.4,0.6,0.6,0.9l3.2,4.8l-9.1-5.1l0.5,4l-1.2,0.3
		c-0.5,0.1-1.1,0.3-1.6,0.6l-3.2,1.8l1.1,3.5c0.6,1.9,0.9,4,0.9,6c0,1.9-0.3,3.7-0.8,5.2l-1.7,4.7l10.6,2.7l-12.7,0.9
		c-0.2,0-0.4,0-0.6,0l-0.1,0l-2.3-0.2l-1.5,1.9c-0.6,0.7-1.1,1.4-1.5,2L209.1,107.5z M216.9,93.2l2.5,0.2l2.4-6.5
		c0.4-1.2,0.7-2.7,0.6-4.3c0-1.8-0.3-3.7-0.8-5.3l-1.5-5l-3.6-1.6c-0.5-0.2-0.9-0.4-1.4-0.4c-1.3-0.2-2.8-0.1-4.1,0.1l-1.7,0.2
		l-1.6-0.6c-1.8-0.6-3.8-1.5-5.7-3.1c-0.5-0.5-1.3-1.1-1.9-2l-0.1-0.1c-0.5-0.7-2.1-2.8-1.7-5.8l0-0.2c0-0.2,0-0.3,0.1-0.5l-7.9-4.8
		l3.9-2.2c-3.3-2-4.4-4.5-4.7-6.6l-1.3,0.6l-3-1.3c-1.1-0.5-2.3-0.9-3.7-1.2l-3.2-0.8l-2.8-0.1l0,1.9l-3.9,1.9
		c-0.7,0.3-1.8,1.4-2.3,1.9c-1,1-1.9,2-2.5,3.3c-0.1,0.2-0.2,0.3-0.2,0.5l-0.1,0.1c-0.3,0.5-0.6,1.3-1.1,2c-1.8,2.8-4.7,4.4-8.1,4.4
		c-0.3,0-0.6,0-1,0c-0.1,0-0.3,0-0.4,0c0,0.1,0,0.2-0.1,0.2l5,1.5l-0.5,5.8c0,0.1,0,0.3,0,0.4c0.2,0,0.4-0.1,0.6-0.2
		c1.4-0.4,2.1-1.1,2.3-1.4l4.3-8.7l7,6.7c2.2,2.1,3.8,4.8,4.7,8.4c0.3,1.1,0.5,2.2,0.7,3.2c0.2,1.1,0.4,2.1,0.7,2.9
		c0.3,1,0.8,2,1.5,2.9c0.5,0.7,1,1.3,1.7,2l5.5,5.7l0.9-0.4l0.8,5.1l5.2,1.2v-5.3l7.7,0.6c1.2,0.1,2.3,0,3.4-0.1l11.6-1.5
		L216.9,93.2z M226.2,68.3c-0.3,0.2-0.6,0.4-0.9,0.6c0.3-0.2,0.6-0.3,0.9-0.4L226.2,68.3z M80.3,107.5l-5.4-7.7
		c-0.4-0.6-0.9-1.2-1.5-1.9l-1.5-1.9l-2.4,0.2c-0.2,0-0.4,0-0.6,0l-12.7-0.9l10.6-2.7l-1.7-4.7c-0.5-1.5-0.8-3.3-0.8-5.2
		c0-2.1,0.3-4.2,0.9-6l1.1-3.5l-3.2-1.8c-0.5-0.3-1.1-0.5-1.6-0.6l-1.2-0.2l0.4-3.9l-9,5.1l3.3-4.9c0.2-0.3,0.4-0.6,0.6-0.9
		c1.1-1.6,1.7-2,2.1-2.1c0.7-0.2,1.5-0.1,2.9,0.4l0.4,0.1l0-0.1l0.6,0.3l1.7,0.6l-0.2,0.1c1.4,0.7,2.8,1.6,4.1,2.6l2.1,1.6l2.4-1.1
		c0.7-0.3,1.4-0.5,2.1-0.6c1.6-0.3,3.4-0.1,4.9,0.1l1.1,0.1l1-0.4c1.6-0.6,3.4-1.3,4.9-2.6c0.4-0.3,1-0.8,1.5-1.5
		c0.4-0.5,1.5-2,1.3-4l0-0.2c0-0.3-0.1-0.6-0.2-0.9l-0.4-1l5.8-3.6l-4.6-2.6l2.6-1c3.4-1.4,5.3-3.4,5.5-6.2l0.3-3.1l1.8,0.7l1.8,0.8
		l1.9-0.8c1.2-0.6,2.6-1,4.1-1.4l4.7-1.2l0.2,0.2l2-0.1c0.4,0,0.8,0,1.1,0l1.2,0.1l0.1,2.8l2.5,1.2c0.9,0.4,1.9,1.3,3,2.4
		c1.2,1.1,2.2,2.4,3,3.8c0.1,0.2,0.2,0.4,0.3,0.6l0.1,0.1c0.3,0.5,0.6,1.1,1,1.8c1.3,2.1,3.4,3.2,5.9,3.3c0.3,0,0.6,0,0.9,0l0.2,0
		c0.6,0,0.8,0,1,0c0.2,0,0.3,0.1,0.4,0.1h0.3l0.4,0.4c0.3,0.3,0.5,0.7,0.6,1.1c0.2,0.8,0.3,1.7,0.3,2.3l-0.1,0.7l-0.6,0.3
		c-0.2,0.1-0.4,0.2-0.6,0.2l-3.6,1l0.3,3.7c0.1,0.8-0.1,1.7-0.5,2.4c-0.1,0.2-0.3,0.4-0.4,0.6l-0.5,0.6l-0.7-0.1
		c-0.5-0.1-1.1-0.2-1.9-0.4c-1.9-0.6-3.3-1.6-3.9-2.7L121,60l-4.4,4.2c-1.9,1.8-3.2,4.1-4,7.2c-0.3,1.1-0.5,2.1-0.7,3.1
		c-0.2,1.1-0.4,2.1-0.7,3c-0.4,1.3-1,2.5-1.9,3.7c-0.5,0.7-1.2,1.5-1.9,2.3l-3.9,4l4.7,2.9c1.4,0.8,2.6,2.1,3.7,3.7l-2.1,1.6
		c-0.9-1-2-1.8-3.2-2.3l-5.5-2.7l-0.5,3.4l-10.2,2.3v-5.8l-4.9,0.4c-1.3,0.1-2.7,0.1-4-0.1l-7.3-1L80.3,107.5z M69.3,72.4l-1.5,5
		C67.3,79,67,80.9,67,82.7c0,1.6,0.2,3.1,0.6,4.3l2.3,6.5l2.6-0.3l-2.2-6.5l11.6,1.5c1.1,0.1,2.2,0.2,3.4,0.1l7.7-0.6v5.3l5.2-1.2
		l0.8-5.1l0.9,0.4l5.5-5.7c0.7-0.7,1.2-1.3,1.7-2c0.7-0.9,1.2-1.9,1.5-2.9c0.2-0.8,0.4-1.7,0.7-2.8c0.2-1,0.4-2.1,0.8-3.3
		c1-3.5,2.5-6.3,4.8-8.4l7-6.6l4.3,8.7c0.2,0.3,0.9,1,2.3,1.4c0.2,0.1,0.4,0.1,0.6,0.2c0-0.1,0-0.3,0-0.4l-0.5-5.8l5-1.5
		c0-0.1,0-0.2-0.1-0.2c-0.1,0-0.2,0-0.3,0l-0.1,0c-0.3,0-0.6,0-1,0c-3.4-0.1-6.3-1.6-8.1-4.5c-0.5-0.7-0.8-1.5-1.1-2l-0.1-0.1
		c-0.1-0.2-0.2-0.3-0.2-0.5c-0.7-1.2-1.6-2.3-2.6-3.2c-0.8-0.8-1.7-1.6-2.3-1.9l-3.9-1.9l0-1.9l-2.8,0.1l-3.2,0.8
		c-1.3,0.3-2.5,0.7-3.6,1.2l-3,1.3l-1.3-0.6c-0.3,2.1-1.5,4.7-4.7,6.6l3.9,2.2l-7.8,4.8c0,0.1,0.1,0.3,0.1,0.4l0,0.2
		c0.2,2.1-0.4,4-1.8,5.9c-0.7,0.9-1.4,1.6-1.9,2c-1.9,1.5-3.9,2.4-5.7,3.1l-1.6,0.6l-1.7-0.2c-1.3-0.2-2.9-0.3-4.1-0.1
		c-0.5,0.1-1,0.2-1.4,0.4L69.3,72.4z M63.2,68.5c0.3,0.1,0.7,0.3,1,0.4c-0.3-0.2-0.6-0.4-1-0.6L63.2,68.5z M99.1,103.1l-2.8-0.6l1-4
		l2.6,0.5l-0.1,0.8c-0.1,0.6-0.2,1.5-0.3,2.1L99.1,103.1z M190.4,103l-0.3-1.3c-0.2-0.7-0.3-1.6-0.3-2.2l0-0.4l2.6-0.5l0.9,3.7
		L190.4,103z M141.5,38.3l-4.8-2.8l-0.2-0.3c-0.1-0.3-0.2-0.5-0.2-0.8c0-1,0.8-1.8,1.8-1.8c0.7,0,1.4,0.4,1.7,1.1L141.5,38.3z
		 M146.4,38.3l1.7-4.6c0.3-0.7,0.9-1.1,1.6-1.1c1,0,1.8,0.8,1.8,1.8c0,0.3-0.1,0.5-0.2,0.8l-0.2,0.3L146.4,38.3z"/>
</g>
<path class="st33" d="M140.5,60.8c-0.6,2.2-2.4,3.5-4.4,4.1c0.2,1.7-0.3,3.5-1.1,5c-0.8,1.4-2,2.7-3.6,3.2c-1.6,0.5-3.5,0-5.1-0.5
	c-2.7-0.8-5.4-2.5-6.6-5.1c-1.4,1.4-2.2,3.2-2.8,5.1c-0.6,2.1-0.9,4.2-1.5,6.3c-0.6,1.8-1.4,3.5-2.5,5c-0.7,1-1.5,1.9-2.3,2.7
	c2.5,1.5,4.4,3.8,5.8,6.3c1.5,2.5,2.5,5.3,3.2,8.1c0.2,0.7,0.3,1.4,0.5,2.1c0.1,0.7,0.3,1.5,0.2,2.2c-0.2,1.6-2.3,2.2-3.6,2.6
	c-1.6,0.5-3.4,0.7-5.1,0.6c-0.7-0.1-1.4-0.2-1.9-0.7c-0.5-0.6-0.5-1.6-0.6-2.3c-0.5-3-1.5-6.5-4.4-7.9c-0.1,0.7-0.2,1.4-0.3,2.2
	c-0.4,2.8-0.7,6.5-3.9,7.5c-1.5,0.4-3.1,0.2-4.5-0.3c-1.3-0.4-3-0.8-3.8-2c-0.5-0.7-0.5-1.4-0.4-2.2c0.1-0.7,0.2-1.4,0.4-2
	c-1.1,0.2-2.3,0.2-3.3-0.2c-1.5-0.5-2.4-2-2.8-3.6c-0.1-0.5-0.1-1-0.1-1.4c-1.6,0.1-3.3,0.1-4.9-0.1c1,2.9,2,5.7,3,8.6
	c0.2,0.7,0.5,1.4,0.7,2.1c0.2,0.6,0.4,1.1,0.5,1.7c0.2,1.3-0.7,1.9-1.7,2.4c-2,1.1-4.4,2-6.6,1.2c-0.9-0.3-1.7-0.9-2.3-1.7
	c-0.7-1-0.7-2.2-1.1-3.2c-0.7-2.1-2.1-4-3.5-5.8c-0.1,0-0.2,0-0.3,0c-0.3,0-0.7,0-1,0c0.8,1.3,1.6,2.6,2.3,4
	c0.4,0.7,0.8,1.4,0.5,2.2c-0.3,0.7-1,1-1.6,1.4c-1.3,0.7-2.6,1.4-4,1.9c-1.2,0.4-2.9,0.8-4-0.1c-0.6-0.4-1-1.1-1.4-1.6
	c-0.4-0.6-0.8-1.2-1.1-1.8c-0.7-1.3-1.3-2.7-1.9-4.1c-1.1-2.7-2.3-5.8-1.3-8.7c0.7-2.2,2.6-3.9,4.8-4.5c-0.8-2.2-1.1-4.5-1.1-6.8
	c0-2.4,0.4-4.9,1.1-7.3c-0.9-0.5-1.9,0.3-2.4,1c-0.7,0.8-1.2,1.6-2.2,2.1c-0.3,0.2-0.7,0-0.8-0.3c-0.3-1.1-0.3-2.2-0.2-3.3
	c-2.5,1.4-5.3,2-8.1,1.8c-2.5-0.2-5.8-1.2-6.4-4c-0.1-0.3,0.1-0.6,0.4-0.7c2.5-0.6,4.9-1.8,6.8-3.6c1.6-1.5,2.7-3.3,4-5.1
	c1.1-1.6,2.5-3.2,4.4-3.9c2.4-0.8,5,0.1,7.2,1c2.3,1,4.5,2.3,6.4,3.8c1-0.5,2.1-0.8,3.2-1c2-0.4,4.1-0.2,6.2,0
	c1.3-0.5,2.6-1,3.7-1.9c0.3-0.2,0.5-0.5,0.7-0.7c0.1-0.2,0.4-0.6,0.4-0.8c0-0.2-0.1-0.2-0.3-0.2c-0.3-0.1-0.5-0.2-0.8-0.3
	c-0.5-0.2-0.9-0.3-1.4-0.5c-0.3-0.1-0.5-0.4-0.4-0.7c0.7-1.8,2-3.3,3.6-4.3c-1.1-0.6-2.2-1.4-3.1-2.3c-0.5-0.5-0.8-1.1-1.1-1.7
	c-0.2-0.6-0.5-1.3-0.4-1.9c0.1-0.7,0.8-0.9,1.4-0.9c0.8,0,1.6,0.1,2.5,0.1c1.8,0,3.5-0.4,5.2-1c1.2-0.4,3.3-1.2,3.4-2.6
	c-1-0.8-1.8-1.8-2.5-2.8c-0.5-0.8-1.4-2.1-0.7-2.9c0.4-0.4,1.1-0.6,1.6-0.8c0.6-0.2,1.3-0.4,1.9-0.5c2.8-0.5,5.6-0.1,8.1,1
	c1.6-0.7,3.2-1.2,4.8-1.6c-0.2-0.6-0.4-1.1-0.6-1.7c-0.2-0.6-0.5-1.3-0.5-1.9c0-1.5,1.9-1,2.8-0.8c2.3,0.5,4.4,1.7,6.1,3.4
	c2.2-0.1,4.4,0.2,5.9,1.9c0.6,0.7,1.1,1.7,1.1,2.6c1.6,0.8,2.9,2,4.1,3.2c1.5,1.4,2.8,3.1,3.8,4.9c0.4,0.7,0.8,1.5,1.2,2.3
	c0.5,0.8,1.2,1.2,2.2,1.2c0.9,0,1.8-0.1,2.7,0.1c0.9,0.1,1.7,0.4,2.4,0.9c1.4,0.9,2.4,2.3,2.9,3.9C140.7,57.2,140.9,59.1,140.5,60.8
	z"/>
<g>
	<g>
		<path class="st0" d="M105.4,42.1c-0.1-0.1-0.1-0.2-0.2-0.2c-1.4-1.7-3.3-3.1-5.4-3.8c-2.1-0.8-4.5-1-6.7-0.5
			c-0.3,0.1-0.6,0.1-0.9,0.2c0,0,0,0,0,0c-0.3,0.1-0.6,0.2-0.8,0.3c-0.3,0.1-0.5,0.2-0.8,0.3c-0.3,0.2-0.3,0.3-0.1,0.5
			c0,0.1,0,0.1,0.1,0.2v0c0.3,0.8,0.8,1.5,1.4,2.2c2.2,2.6,5.6,4.2,9,4c0.2,0,0.5,0,0.7-0.1c0.1,0,0.1,0,0.2,0
			c0.2,0,0.3,0.1,0.4,0.2c0,0,0,0,0,0c0.2,0.2,0.2,0.5,0.1,0.7c-0.1,0.1-0.2,0.1-0.3,0.2c-0.1,0-0.2,0-0.4,0.1c-0.3,0-0.6,0.1-1,0.1
			h0c-2,0.1-4-0.4-5.8-1.3c-0.4-0.2-0.8-0.4-1.2-0.7c-0.3-0.2-0.7-0.5-1-0.7c-1-0.8-1.8-1.8-2.5-2.8c-0.5-0.8-1.4-2.1-0.7-2.9
			c0.4-0.4,1.1-0.6,1.6-0.8c0.6-0.2,1.3-0.4,1.9-0.5c2.8-0.5,5.6-0.1,8.1,1c0.4,0.2,0.9,0.4,1.3,0.7c1.4,0.8,2.7,1.9,3.8,3.3
			c0.1,0.1,0.1,0.1,0.2,0.2C106.8,42.1,105.8,42.7,105.4,42.1z"/>
	</g>
	<g>
		<path class="st0" d="M102.3,45.5c-1-2.4-2-5-4.4-6.5c-2.4-1.5-5.3-1.4-8-1c-0.7,0.1-0.4,1.2,0.3,1.1c2.4-0.3,5-0.4,7.1,0.9
			c2.1,1.3,3,3.7,3.8,5.8C101.5,46.4,102.6,46.1,102.3,45.5L102.3,45.5z"/>
	</g>
	<g>
		<path class="st0" d="M120.8,39.2c0,0.3,0,0.5-0.1,0.8c0,0.1-0.1,0.3-0.1,0.4c-0.3,1-1.1,1.7-2,2.3c-1.2,0.7-2.5,1-3.8,1.3
			c-1.6,0.4-3.3,0.7-4.9,1c-1.3,0.2-3,0.2-4,1.2c-1,1-1,2.6-1.1,3.9c0,0.4-0.5,0.7-0.8,0.5c-1.4-0.7-2.2-2.2-2.3-3.7
			c0-0.2,0-0.4,0-0.7c0,0,0-0.1,0-0.1c0-0.2,0.1-0.5,0.1-0.7c0-0.1,0-0.2,0.1-0.2c0,0,0-0.1,0.1-0.1c0-0.1,0.1-0.3,0.2-0.4
			c0.4-0.9,1.1-1.5,1.9-2.1c0.4-0.3,0.8-0.5,1.3-0.7c0.3-0.2,0.7-0.4,1-0.5c0.6-0.3,1.3-0.6,1.9-0.9c0.6-0.3,1.2,0.6,0.6,1
			c-1.2,0.6-2.4,1.2-3.6,1.9c-0.9,0.5-1.7,1-2.1,2c-0.5,1.3-0.2,2.8,0.7,3.8c0.1-1.1,0.3-2.1,0.9-3c0.8-1.2,2.1-1.7,3.5-1.9
			c2.9-0.4,5.9-0.8,8.7-1.8c1-0.4,2.2-0.9,2.7-2c0.1-0.2,0.2-0.4,0.2-0.6c0,0,0-0.1,0-0.1c0.1-0.9-0.3-1.8-1-2.4
			c-1-1-2.5-1.3-3.9-1.4c-1.5-0.1-3,0.1-4.4,0.3c-2.7,0.4-5.4,1-8,2c-0.3,0.1-0.7,0.3-1,0.4c-0.6,0.3-1.2-0.7-0.6-1
			c0.1,0,0.2-0.1,0.3-0.1c1.6-0.7,3.2-1.2,4.8-1.6c0.4-0.1,0.7-0.2,1.1-0.3c1.5-0.3,2.9-0.5,4.4-0.7c0.3,0,0.5-0.1,0.8-0.1
			c0.5,0,1-0.1,1.5-0.1c2.2-0.1,4.4,0.2,5.9,1.9C120.4,37.4,120.8,38.3,120.8,39.2z"/>
	</g>
	<g>
		<path class="st0" d="M113.2,35.6c-0.3-0.3-0.6-0.6-0.9-0.8c-1.2-1-2.6-1.8-4.1-2.2c-0.5-0.1-1-0.3-1.4-0.3c-0.2,0-0.5-0.1-0.7-0.1
			c0,0-0.1,0-0.1-0.1c0,0,0,0,0,0.1c0,0.1,0,0.2,0.1,0.3c0.3,1,0.6,2.1,1,3.1c0,0.1,0.1,0.2,0.1,0.3c0.3,0.7-0.8,1-1.1,0.3
			c0-0.1-0.1-0.2-0.1-0.3c-0.2-0.6-0.4-1.1-0.6-1.7c-0.2-0.6-0.5-1.3-0.5-1.9c0-1.5,1.9-1,2.8-0.8c2.3,0.5,4.4,1.7,6.1,3.4
			c0.1,0,0.1,0.1,0.1,0.1C114.5,35.3,113.7,36.1,113.2,35.6z"/>
	</g>
	<g>
		<path class="st0" d="M101.3,45.6c-3.9,3.5-4,9.6-3,14.4c0.6,2.6,1.8,5.2,4.3,6.6c2.3,1.3,5.1,1.5,7.8,1.6c3.2,0.1,6.7,0.2,9.5-1.6
			c0.6-0.4,0-1.3-0.6-1c-2.3,1.4-5.1,1.5-7.8,1.5c-2.5-0.1-5.2-0.1-7.5-1c-2.4-1-3.8-3.1-4.5-5.5c-0.6-2.3-0.8-4.8-0.6-7.2
			c0.2-2.6,1.1-5.2,3.1-7C102.7,45.9,101.9,45.1,101.3,45.6L101.3,45.6z"/>
	</g>
	<g>
		<path class="st0" d="M140.5,60.8c-0.6,2.2-2.4,3.5-4.4,4.1c-0.4,0.1-0.7,0.2-1.1,0.3c-0.3,0.1-0.7,0.1-1,0.1h0
			c-0.4,0-0.7,0.1-1.1,0.1h0c-0.4,0-0.7,0-1.1,0c-2.9-0.2-6.3-1-8-3.4c0,0,0,0,0,0c-0.3-0.5-0.6-1-0.8-1.6c-0.1-0.3,0.1-0.6,0.3-0.6
			c0,0,0,0,0,0h0c0.3-0.1,0.6,0,0.7,0.4c0.6,1.8,2.2,2.9,4,3.5c1.9,0.6,4.1,0.8,6,0.6c1.6-0.1,3.3-0.7,4.4-1.9
			c1.2-1.3,1.3-3,1.1-4.6c-0.2-1.5-0.6-3-1.7-4.1c-1.1-1.2-2.7-1.7-4.3-1.7c-0.9,0-1.7,0.1-2.6-0.1c-0.7-0.2-1.2-0.7-1.7-1.2
			c-0.4-0.6-0.7-1.3-1.1-1.9c-0.4-0.7-0.8-1.4-1.3-2.1c-1-1.4-2.1-2.7-3.4-3.8c-0.9-0.8-1.8-1.6-2.8-2.2c-0.2-0.1-0.4-0.2-0.7-0.3
			c-0.2-0.1-0.3-0.3-0.3-0.4c0,0,0-0.1,0-0.1c0.1-0.3,0.4-0.6,0.8-0.5c0.1,0,0.2,0.1,0.3,0.1c1.6,0.8,2.9,2,4.1,3.2
			c1.5,1.4,2.8,3.1,3.8,4.9c0.4,0.7,0.8,1.5,1.2,2.3c0.5,0.8,1.2,1.2,2.2,1.2c0.9,0,1.8-0.1,2.7,0.1c0.9,0.1,1.7,0.4,2.4,0.9
			c1.4,0.9,2.4,2.3,2.9,3.9C140.7,57.2,140.9,59.1,140.5,60.8z"/>
	</g>
	<g>
		<path class="st0" d="M122.8,60.2c-0.4,2.9,0,6.1,2.2,8.2c2,2,5.5,2.4,7.7,0.4c1.1-1,1.6-2.6,1.3-4.1c-0.2-0.7-1.2-0.4-1.1,0.3
			c0.4,1.4-0.4,2.8-1.7,3.5c-1.3,0.7-3,0.6-4.4-0.1c-2.9-1.6-3.3-5.3-2.9-8.2C124,59.5,122.9,59.5,122.8,60.2L122.8,60.2z"/>
	</g>
	<g>
		<path class="st0" d="M135,69.9c-0.8,1.4-2,2.7-3.6,3.2c-1.6,0.5-3.5,0-5.1-0.5c-2.7-0.8-5.4-2.5-6.6-5.1c-0.1-0.2-0.2-0.4-0.3-0.6
			c-0.1-0.2-0.1-0.3-0.2-0.5c0-0.1-0.1-0.2-0.1-0.2c-0.1-0.2,0-0.4,0.1-0.5c0,0,0,0,0,0c0.3-0.3,0.8-0.2,0.9,0.2
			c1.1,3.8,5.2,5.7,8.8,6.1c1,0.1,2,0.1,2.9-0.4c0.8-0.4,1.4-1.2,1.9-1.9c0.9-1.4,1.3-3,1.3-4.6c0-0.2,0-0.3,0-0.5
			c-0.1-0.7,1-0.7,1.1,0c0,0.1,0,0.1,0,0.2C136.2,66.6,135.8,68.4,135,69.9z"/>
	</g>
	<g>
		<path class="st0" d="M93.9,43.4c0,0.3-0.1,0.6-0.2,0.9c-0.4,1.1-1.6,1.9-2.7,2.4c-1.5,0.7-3.1,1.2-4.7,1.4
			c-0.8,0.1-1.6,0.2-2.5,0.2c-0.4,0-0.8,0-1.3-0.1c-0.3,0-0.7-0.1-1-0.1c-0.2,0-0.2,0-0.2,0.2c0,0.1,0,0.3,0.1,0.5
			c0.1,0.3,0.2,0.6,0.3,0.9c0.3,0.6,0.7,1.1,1.1,1.5c1,0.9,2.2,1.6,3.4,2.3c0.4,0.2,0.4,0.8,0,1c-1.6,0.8-3,2.1-3.8,3.7
			c0.4,0.2,0.9,0.3,1.3,0.5c0.4,0.2,1,0.3,1.2,0.7c0.4,0.8-0.2,1.8-0.8,2.3c-0.8,0.9-1.8,1.5-2.9,2c-0.7,0.3-1.3,0.6-2,0.8
			c0,0,0,0-0.1,0c-0.1,0-0.2,0-0.3,0c-0.4-0.2-0.4-0.9,0.1-1c0,0,0.1,0,0.1,0c1.3-0.5,2.6-1,3.7-1.9c0.3-0.2,0.5-0.5,0.7-0.7
			c0.1-0.2,0.4-0.6,0.4-0.8c0-0.2-0.1-0.2-0.3-0.2c-0.3-0.1-0.5-0.2-0.8-0.3c-0.5-0.2-0.9-0.3-1.4-0.5c-0.3-0.1-0.5-0.4-0.4-0.7
			c0.7-1.8,2-3.3,3.6-4.3c-1.1-0.6-2.2-1.4-3.1-2.3c-0.5-0.5-0.8-1.1-1.1-1.7c-0.2-0.6-0.5-1.3-0.4-1.9c0.1-0.7,0.8-0.9,1.4-0.9
			c0.8,0,1.6,0.1,2.5,0.1c1.8,0,3.5-0.4,5.2-1c1.2-0.4,3.3-1.2,3.4-2.6v-0.1C92.7,42.6,93.8,42.7,93.9,43.4z"/>
	</g>
	<g>
		<path class="st0" d="M98.8,58.1c-0.3,0.2-0.5,0.4-0.7,0.7c-1.5,1.5-2.6,3.3-4.1,4.8c-1.7,1.7-3.8,2.7-6.3,2.4
			c-1.2-0.1-2.4-0.5-3.6-0.7c-1.2-0.3-2.3-0.5-3.5-0.6c-0.4-0.1-0.8-0.1-1.2-0.2c-0.1,0-0.2,0-0.3,0c-1.9-0.2-3.8-0.3-5.7,0
			c-4,0.7-7.4,3.4-9.4,6.8c-2.2,3.7-3.2,8.1-3,12.3c0.1,3.8,1.2,7.7,4.1,10.3c0.5,0.5-0.3,1.3-0.8,0.8C63,93.4,62,92,61.3,90.4
			c-0.2-0.3-0.3-0.7-0.4-1c-0.8-2.2-1.1-4.5-1.1-6.8c0-2.4,0.4-4.9,1.1-7.3c0.1-0.4,0.2-0.7,0.4-1.1c0.5-1.5,1.2-2.9,2.1-4.2
			c1.4-2.1,3.3-4,5.5-5.3c0.4-0.2,0.7-0.4,1.1-0.6c1-0.5,2.1-0.8,3.2-1c2-0.4,4.1-0.2,6.2,0c0.3,0,0.7,0.1,1,0.1
			c0.4,0.1,0.8,0.1,1.1,0.2c0.9,0.1,1.7,0.3,2.6,0.5c1.2,0.2,2.4,0.6,3.6,0.8c1.2,0.2,2.4,0.1,3.5-0.5c0.9-0.5,1.7-1.2,2.4-1.9
			c1.5-1.6,2.6-3.5,4.3-4.9l0,0c0,0,0.1-0.1,0.1-0.1C98.6,56.8,99.4,57.6,98.8,58.1z"/>
	</g>
	<g>
		<path class="st0" d="M76.2,93.1c0,0.4,0,0.8-0.1,1.1c0,0.2,0,0.4-0.1,0.6c-0.2,1.6-0.3,3.5-1.7,4.5c-0.9,0.7-2,1-3.1,1.2
			c-0.4,0.1-0.9,0.1-1.3,0.1c-0.1,0-0.2,0-0.3,0c-0.3,0-0.7,0-1,0c-0.5,0-1-0.1-1.4-0.2c-1-0.2-1.9-0.5-2.8-0.9
			c-0.7-0.3-0.1-1.2,0.6-1c1.9,0.8,4,1.1,6,0.8c0.9-0.1,1.8-0.4,2.6-0.9c0.8-0.5,1-1.3,1.2-2.2c0.2-0.9,0.3-1.8,0.4-2.8
			c0-0.1,0-0.2,0-0.3c0.1-1.1,0-2.3-0.3-3.4c-0.5-1.8-1.6-3.3-3-4.4c-0.6-0.4,0.2-1.2,0.8-0.8c1.5,1.2,2.6,2.7,3.2,4.5
			C76.1,90.5,76.2,91.8,76.2,93.1z"/>
	</g>
	<g>
		<path class="st0" d="M71.4,106.9c-0.3,0.7-1,1-1.6,1.4c-1.3,0.7-2.6,1.4-4,1.9c-1.2,0.4-2.9,0.8-4-0.1c-0.6-0.4-1-1.1-1.4-1.6
			c-0.4-0.6-0.8-1.2-1.1-1.8c-0.7-1.3-1.3-2.7-1.9-4.1c-1.1-2.7-2.3-5.8-1.3-8.7c0.7-2.2,2.6-3.9,4.8-4.5c0.2,0,0.3-0.1,0.5-0.1
			c0.7-0.1,1,0.9,0.3,1.1c-0.1,0-0.2,0.1-0.4,0.1c-2.3,0.6-4.1,2.5-4.5,4.9c-0.3,2.6,0.8,5.1,1.8,7.4c0.5,1.2,1,2.3,1.6,3.4
			c0,0,0,0.1,0.1,0.1c0.2,0.3,0.4,0.6,0.6,1c0.1,0.2,0.3,0.4,0.4,0.6c0.3,0.5,0.7,1.1,1.2,1.4c0.5,0.4,1.3,0.2,1.9,0.1
			c0.6-0.1,1.1-0.3,1.7-0.5c1.2-0.4,2.3-1,3.3-1.7c0.3-0.2,0.6-0.3,0.9-0.5c0.3-0.3,0.2-0.6,0-0.9c-0.3-0.6-0.6-1.2-0.9-1.7
			c-0.1-0.1-0.2-0.3-0.2-0.4c-0.2-0.3-0.4-0.7-0.6-1c-0.4-0.7-0.9-1.4-1.3-2.1c0,0,0,0,0,0c-0.3-0.6,0.6-1.1,1-0.5
			c0.2,0.2,0.3,0.5,0.5,0.7c0.8,1.3,1.6,2.6,2.3,4C71.3,105.3,71.7,106.1,71.4,106.9z"/>
	</g>
	<g>
		<path class="st0" d="M60.5,107.4c2.6-1.7,5.5-3,8.6-3.8c0.7-0.2,0.4-1.2-0.3-1.1c-3.1,0.8-6.1,2.1-8.8,3.9
			C59.4,106.9,59.9,107.8,60.5,107.4L60.5,107.4z"/>
	</g>
	<g>
		<path class="st0" d="M86.4,95.5c-0.2,0-0.4,0-0.6,0c-1.6,0.1-3.3,0.1-4.9-0.1c-0.4-0.1-0.8-0.1-1.2-0.2c-1.2-0.2-2.4-0.6-3.6-1
			c-0.3-0.1-0.5-0.2-0.8-0.3c-0.2-0.1-0.3-0.2-0.3-0.3c0-0.1,0-0.2,0-0.3c0.1-0.3,0.4-0.6,0.8-0.4c0.1,0,0.2,0.1,0.3,0.1
			c3,1.2,6.5,1.6,9.7,1.4c0.2,0,0.3,0,0.5,0C87.1,94.4,87.1,95.5,86.4,95.5z"/>
	</g>
	<g>
		<path class="st0" d="M93,100.4C93,100.4,92.9,100.4,93,100.4C92.9,100.4,92.9,100.4,93,100.4c-0.3,0.1-0.5,0.2-0.7,0.2h0
			c-0.1,0-0.1,0-0.2,0c-1.1,0.2-2.3,0.2-3.3-0.2c-1.5-0.5-2.4-2-2.8-3.6c-0.1-0.5-0.1-1-0.1-1.4c0-0.4,0-0.7,0.1-1.1
			c0.2-1.1,0.5-2.3,1-3.3c0.8-1.8,1.9-3.5,3.1-5.1c0.5-0.5,1.2,0.2,0.8,0.8c-1.1,1.3-2.1,2.8-2.8,4.4c-0.7,1.6-1.3,3.3-1.1,5.1
			c0.2,1.3,0.9,2.8,2.2,3.2c1,0.3,2.2,0.3,3.2-0.1c0.1,0,0.2-0.1,0.3-0.1C93.3,99.1,93.6,100.2,93,100.4z"/>
	</g>
	<g>
		<path class="st0" d="M105,94c0,0.8-0.1,1.6-0.2,2.4c-0.1,0.4-0.1,0.8-0.2,1.1c-0.1,0.7-0.2,1.4-0.3,2.2c-0.4,2.8-0.7,6.5-3.9,7.5
			c-1.5,0.4-3.1,0.2-4.5-0.3c-1.3-0.4-3-0.8-3.8-2c-0.5-0.7-0.5-1.4-0.4-2.2c0.1-0.7,0.2-1.4,0.4-2c0-0.2,0.1-0.4,0.1-0.6
			c0.1-0.2,0.1-0.5,0.2-0.7c0.5-1.5,1.1-2.9,1.8-4.2c0.4-0.6,1.3-0.1,1,0.6c-0.9,1.5-1.5,3.1-1.9,4.8c0,0,0,0,0,0v0
			c-0.1,0.4-0.2,0.8-0.3,1.2v0c-0.1,0.4-0.2,0.9-0.2,1.3c-0.1,0.8,0.3,1.3,0.9,1.7c1.1,0.6,2.4,1,3.6,1.2c1.3,0.2,2.7,0.3,3.8-0.5
			c0.6-0.4,1-1.1,1.3-1.8v0c0.2-0.4,0.3-0.8,0.4-1.2v0c0-0.1,0-0.1,0-0.2c0.3-1.4,0.4-2.9,0.6-4.3c0.3-2.4,1.5-6.8-1.5-8.2
			c-1.2-0.5-2.7-0.3-4-0.1c-1.5,0.3-3,0.6-4.3,1.2c-0.6,0.3-1.2-0.7-0.6-1c1.8-0.8,3.7-1.2,5.6-1.5c1.6-0.2,3.4-0.2,4.7,1
			c0.3,0.3,0.6,0.6,0.8,1c0.2,0.3,0.3,0.7,0.4,1C104.9,92.5,105,93.3,105,94z"/>
	</g>
	<g>
		<path class="st0" d="M92.3,101.3c2.8,2.9,7.1,3.3,10.8,2.3c0.7-0.2,0.4-1.2-0.3-1.1c-3.4,0.9-7.2,0.6-9.7-2.1
			C92.6,100,91.8,100.8,92.3,101.3L92.3,101.3z"/>
	</g>
	<g>
		<path class="st0" d="M120.2,105.3c-0.2,1.6-2.3,2.2-3.6,2.6c-1.6,0.5-3.4,0.7-5.1,0.6c-0.7-0.1-1.4-0.2-1.9-0.7
			c-0.5-0.6-0.5-1.6-0.6-2.3c-0.5-3-1.5-6.5-4.4-7.9c-0.1-0.1-0.3-0.1-0.4-0.2c-0.7-0.3-0.4-1.3,0.3-1.1c0.1,0,0.2,0.1,0.3,0.1
			c3,1.3,4.5,4.4,5.1,7.5v0c0,0,0,0,0,0.1c0.1,0.4,0.1,0.8,0.2,1.1v0c0.1,0.5,0.1,0.9,0.2,1.4c0.1,0.4,0.1,0.6,0.5,0.8
			c0.3,0.1,0.7,0.1,1,0.1c1.6,0.1,3.2-0.2,4.8-0.7c0.7-0.2,1.7-0.5,2.2-1.1c0.5-0.5,0.2-1.3,0.1-1.9c0-0.2-0.1-0.5-0.1-0.7
			c-0.1-0.4-0.2-0.7-0.2-1.1v0c-0.2-0.7-0.3-1.4-0.5-2c-1.4-4.8-3.9-9.9-8.4-12.5c-0.1-0.1-0.2-0.1-0.4-0.2c-0.6-0.3-0.1-1.3,0.6-1
			c0.2,0.1,0.4,0.2,0.6,0.4c2.5,1.5,4.4,3.8,5.8,6.3c1.5,2.5,2.5,5.3,3.2,8.1c0.2,0.7,0.3,1.4,0.5,2.1
			C120.1,103.9,120.3,104.6,120.2,105.3z"/>
	</g>
	<g>
		<path class="st0" d="M120,67.2c-0.1,0.1-0.3,0.2-0.4,0.4c-1.4,1.4-2.2,3.2-2.8,5.1c-0.6,2.1-0.9,4.2-1.5,6.3
			c-0.6,1.8-1.4,3.5-2.5,5c-0.7,1-1.5,1.9-2.3,2.7c-0.3,0.3-0.5,0.5-0.8,0.8c-1.6,1.5-3.3,2.9-5,4.2c0,0-0.1,0-0.1,0.1
			c-0.5,0.3-1.2-0.4-0.7-0.8c0.1-0.1,0.2-0.1,0.3-0.2c1.6-1.3,3.2-2.6,4.7-4c1.4-1.3,2.6-2.7,3.6-4.3c1.1-1.7,1.8-3.5,2.3-5.5
			c0.8-3.2,1.2-6.9,3.4-9.5c0.3-0.4,0.6-0.7,1-1l0.1-0.1c0.3-0.2,0.6-0.1,0.8,0.1C120.2,66.7,120.3,67,120,67.2z"/>
	</g>
	<g>
		<path class="st0" d="M83.4,110.2c-2,1.1-4.4,2-6.6,1.2c-0.9-0.3-1.7-0.9-2.3-1.7c-0.7-1-0.7-2.2-1.1-3.2c-0.7-2.1-2.1-4-3.5-5.8
			c0,0-0.1-0.1-0.1-0.1c-0.4-0.6,0.3-1.3,0.8-0.8c0.2,0.3,0.4,0.5,0.6,0.8c1.2,1.6,2.4,3.3,3.1,5.1c0.2,0.5,0.3,1,0.5,1.6
			c0.1,0.4,0.2,0.7,0.3,1.1c0,0.1,0.1,0.1,0.1,0.2c0.4,0.9,1.2,1.5,2.1,1.8c2.1,0.7,4.3-0.4,6.1-1.4c0.6-0.3,0.8-0.7,0.6-1.3
			c-0.1-0.5-0.3-1-0.5-1.5c-0.1-0.2-0.1-0.3-0.2-0.4v0c-0.1-0.4-0.2-0.7-0.4-1.1c-0.3-0.8-0.5-1.5-0.8-2.2c-0.8-2.4-1.7-4.8-2.5-7.2
			c0,0,0-0.1,0-0.1c-0.2-0.7,0.8-1,1.1-0.3c0.1,0.2,0.1,0.4,0.2,0.6c1,2.9,2,5.7,3,8.6c0.2,0.7,0.5,1.4,0.7,2.1
			c0.2,0.6,0.4,1.1,0.5,1.7C85.3,109.1,84.4,109.7,83.4,110.2z"/>
	</g>
	<g>
		<path class="st0" d="M69.6,65.3c-0.2-0.2-0.5-0.4-0.7-0.5c-2.1-1.5-4.3-2.8-6.7-3.7c-2.2-0.9-4.7-1.4-6.8,0
			c-1.6,1.1-2.7,2.9-3.7,4.5c-1.2,1.8-2.6,3.4-4.3,4.7c-1.6,1.2-3.5,2.1-5.4,2.6c0.8,2.1,3.7,2.6,5.7,2.7c2.9,0.1,5.7-0.7,8.1-2.3
			c0.4-0.3,0.9,0.2,0.8,0.6c-0.3,1-0.3,2.1-0.2,3.1c0.7-0.7,1.2-1.5,2-2.1c0.8-0.6,1.9-1,2.9-0.6c0.1,0,0.2,0.1,0.3,0.2
			c0.6,0.4,0,1.4-0.6,1c0,0-0.1-0.1-0.1-0.1c-0.9-0.5-1.9,0.3-2.4,1c-0.7,0.8-1.2,1.6-2.2,2.1c-0.3,0.2-0.7,0-0.8-0.3
			c-0.3-1.1-0.3-2.2-0.2-3.3c-2.5,1.4-5.3,2-8.1,1.8c-2.5-0.2-5.8-1.2-6.4-4c-0.1-0.3,0.1-0.6,0.4-0.7c2.5-0.6,4.9-1.8,6.8-3.6
			c1.6-1.5,2.7-3.3,4-5.1c1.1-1.6,2.5-3.2,4.4-3.9c2.4-0.8,5,0.1,7.2,1c2.3,1,4.5,2.3,6.4,3.8c0.1,0,0.1,0.1,0.2,0.1
			C70.7,64.8,70.2,65.7,69.6,65.3z"/>
	</g>
	<g>
		<path class="st0" d="M74.6,108.4c1.6-0.3,3.2-0.5,4.8-0.9c0.7-0.2,1.4-0.5,2.1-0.9c0.8-0.4,1.5-0.8,2.3-1.2c0.6-0.3,0.1-1.3-0.6-1
			c-0.7,0.4-1.5,0.8-2.2,1.1c-0.7,0.3-1.3,0.7-2,0.8c-1.5,0.3-3.1,0.6-4.7,0.8C73.6,107.5,73.9,108.6,74.6,108.4L74.6,108.4z"/>
	</g>
	<g>
		<path class="st0" d="M110,105.2c0.4-0.6,1.3-0.7,2-0.9c0.8-0.2,1.5-0.4,2.3-0.6c1.6-0.4,3.3-0.6,4.9-0.8c0.7-0.1,0.7-1.2,0-1.1
			c-1.8,0.2-3.6,0.4-5.4,0.8c-0.9,0.2-1.8,0.4-2.7,0.7c-0.7,0.2-1.5,0.4-2,1C108.8,105,109.5,105.8,110,105.2L110,105.2z"/>
	</g>
</g>
<path class="st33" d="M248.7,72.6c-0.6,2.8-3.9,3.8-6.4,4c-2.8,0.2-5.7-0.4-8.1-1.8c0.1,1.1,0.1,2.2-0.2,3.3
	c-0.1,0.4-0.5,0.5-0.8,0.3c-0.9-0.5-1.5-1.4-2.2-2.1c-0.6-0.7-1.6-1.5-2.4-1c0.7,2.4,1.1,4.9,1.1,7.3c0,2.3-0.3,4.6-1.1,6.8
	c2.2,0.6,4.1,2.3,4.8,4.5c1,2.9-0.2,6-1.3,8.7c-0.6,1.4-1.2,2.7-1.9,4.1c-0.3,0.6-0.7,1.2-1.1,1.8c-0.4,0.6-0.8,1.2-1.4,1.6
	c-1.1,0.8-2.8,0.4-4,0.1c-1.4-0.4-2.7-1.1-4-1.9c-0.6-0.3-1.4-0.7-1.6-1.4c-0.3-0.8,0.1-1.5,0.5-2.2c0.7-1.4,1.5-2.7,2.3-4
	c-0.3,0-0.7,0-1,0c-0.1,0-0.2,0-0.2,0c-1.4,1.8-2.8,3.7-3.5,5.8c-0.4,1.1-0.5,2.3-1.1,3.2c-0.5,0.8-1.3,1.3-2.2,1.7
	c-2.3,0.8-4.6-0.1-6.6-1.2c-1-0.6-1.9-1.2-1.7-2.4c0.1-0.6,0.3-1.1,0.5-1.7c0.2-0.7,0.5-1.4,0.7-2.1c1-2.9,2-5.7,3-8.6
	c-1.6,0.2-3.3,0.3-4.9,0.1c0,0.5,0,1-0.2,1.4c-0.3,1.5-1.2,3-2.8,3.6c-1,0.3-2.2,0.4-3.3,0.2c0.2,0.7,0.3,1.4,0.4,2
	c0.1,0.8,0.1,1.6-0.4,2.2c-0.8,1.2-2.5,1.6-3.8,2c-1.4,0.4-3,0.7-4.5,0.3c-3.2-1-3.6-4.6-3.9-7.5c-0.1-0.7-0.2-1.4-0.3-2.2
	c-2.9,1.4-4,4.9-4.4,7.9c-0.1,0.7-0.1,1.7-0.6,2.3c-0.5,0.6-1.2,0.7-1.9,0.7c-1.7,0.1-3.5-0.1-5.1-0.6c-1.3-0.4-3.4-1-3.6-2.6
	c-0.1-0.7,0.1-1.5,0.2-2.2c0.1-0.7,0.3-1.4,0.4-2.1c0.7-2.8,1.7-5.6,3.2-8.1c1.5-2.5,3.4-4.8,5.8-6.3c-0.8-0.9-1.6-1.8-2.3-2.7
	c-1.1-1.5-2-3.2-2.5-5c-0.7-2.1-0.9-4.2-1.5-6.3c-0.5-1.9-1.3-3.7-2.8-5.1c-1.3,2.6-3.9,4.2-6.6,5.1c-1.6,0.5-3.4,0.9-5.1,0.5
	c-1.6-0.4-2.8-1.8-3.6-3.2c-0.9-1.5-1.3-3.3-1.1-5c-2-0.6-3.8-1.8-4.4-4.1c-0.5-1.6-0.2-3.6,0.3-5.2c0.5-1.6,1.4-3,2.9-3.9
	c0.7-0.4,1.6-0.7,2.4-0.9c0.9-0.1,1.8-0.1,2.7-0.1c1,0,1.7-0.4,2.2-1.2c0.5-0.7,0.8-1.5,1.2-2.3c1-1.8,2.3-3.4,3.8-4.9
	c1.2-1.2,2.6-2.4,4.1-3.2c0-1,0.5-1.9,1.1-2.6c1.5-1.7,3.7-2,5.9-1.9c1.7-1.7,3.8-2.9,6.1-3.4c0.9-0.2,2.8-0.7,2.8,0.8
	c0,0.6-0.3,1.3-0.5,1.9c-0.2,0.6-0.4,1.2-0.6,1.7c1.6,0.4,3.3,0.9,4.8,1.6c2.5-1.1,5.3-1.5,8.1-1c0.6,0.1,1.3,0.3,1.9,0.5
	c0.5,0.2,1.2,0.4,1.6,0.8c0.7,0.8-0.2,2.2-0.7,2.9c-0.7,1.1-1.5,2-2.5,2.8c0.1,1.5,2.2,2.2,3.4,2.6c1.7,0.6,3.4,0.9,5.2,1
	c0.8,0,1.6-0.1,2.5-0.1c0.6,0,1.2,0.3,1.4,0.9c0.1,0.6-0.1,1.4-0.4,1.9c-0.3,0.6-0.7,1.2-1.1,1.7c-0.9,1-2,1.7-3.1,2.3
	c1.6,1,2.9,2.5,3.6,4.3c0.1,0.3-0.1,0.6-0.4,0.7c-0.5,0.2-0.9,0.3-1.3,0.5c-0.3,0.1-0.5,0.2-0.8,0.3c-0.2,0.1-0.3,0-0.3,0.2
	c0,0.2,0.3,0.6,0.4,0.8c0.2,0.3,0.5,0.5,0.7,0.7c1.1,0.9,2.4,1.4,3.7,1.9c2-0.2,4.1-0.4,6.2,0c1.1,0.2,2.2,0.5,3.2,1
	c2-1.5,4.2-2.8,6.5-3.8c2.2-1,4.8-1.9,7.2-1c1.9,0.7,3.3,2.2,4.4,3.9c1.2,1.8,2.3,3.6,4,5.1c1.9,1.7,4.3,3,6.8,3.6
	C248.6,72,248.8,72.3,248.7,72.6z"/>
<g>
	<g>
		<path class="st0" d="M199.2,40.7c-0.7,1.1-1.5,2-2.5,2.8c-0.3,0.3-0.6,0.5-1,0.7c-0.4,0.3-0.8,0.5-1.2,0.7
			c-1.8,0.9-3.8,1.4-5.8,1.3c-0.3,0-0.6,0-1-0.1c-0.1,0-0.2,0-0.4-0.1c-0.1,0-0.2-0.1-0.3-0.2c-0.2-0.2-0.1-0.5,0-0.7c0,0,0,0,0,0
			c0.1-0.1,0.2-0.2,0.4-0.2c0.1,0,0.1,0,0.2,0c0.2,0,0.5,0.1,0.7,0.1c3.4,0.3,6.9-1.3,9-4c0.6-0.7,1-1.4,1.4-2.2v0
			c0-0.1,0-0.1,0.1-0.2c0.1-0.3,0.1-0.4-0.1-0.5c-0.2-0.1-0.5-0.2-0.8-0.3c-0.3-0.1-0.5-0.2-0.8-0.3h0c-0.3-0.1-0.6-0.2-0.9-0.2
			c-2.2-0.5-4.6-0.3-6.7,0.5c-2.1,0.8-4,2.1-5.4,3.8c-0.1,0.1-0.1,0.2-0.2,0.2c-0.4,0.6-1.4,0-1-0.6c0.1-0.1,0.1-0.1,0.2-0.2
			c1.1-1.3,2.4-2.4,3.8-3.3c0.4-0.2,0.8-0.5,1.3-0.7c2.5-1.1,5.3-1.5,8.1-1c0.6,0.1,1.3,0.3,1.9,0.5c0.5,0.2,1.2,0.4,1.6,0.8
			C200.6,38.6,199.7,39.9,199.2,40.7z"/>
	</g>
	<g>
		<path class="st0" d="M187.2,45.5c1-2.4,2-5,4.4-6.5c2.4-1.5,5.3-1.4,8-1c0.7,0.1,0.4,1.2-0.3,1.1c-2.4-0.3-5-0.4-7.1,0.9
			c-2.1,1.3-3,3.7-3.8,5.8C188,46.4,186.9,46.1,187.2,45.5L187.2,45.5z"/>
	</g>
	<g>
		<path class="st0" d="M188,38.5c-0.3-0.1-0.6-0.3-1-0.4c-2.6-1-5.3-1.7-8-2c-1.5-0.2-3-0.3-4.4-0.3c-1.4,0-2.9,0.3-3.9,1.4
			c-0.6,0.6-1.1,1.5-1,2.4c0,0,0,0.1,0,0.1c0,0.2,0.1,0.4,0.2,0.6c0.5,1.1,1.7,1.6,2.7,2c2.8,1,5.8,1.4,8.7,1.8
			c1.4,0.2,2.7,0.7,3.5,1.9c0.6,0.9,0.8,1.9,0.9,3c0.9-1,1.2-2.5,0.7-3.8c-0.4-1-1.2-1.5-2.1-2c-1.2-0.7-2.4-1.3-3.6-1.9
			c-0.6-0.3-0.1-1.3,0.6-1c0.6,0.3,1.2,0.6,1.9,0.9c0.3,0.2,0.7,0.3,1,0.5c0.4,0.2,0.9,0.5,1.3,0.7c0.8,0.5,1.5,1.2,1.9,2.1
			c0.1,0.1,0.1,0.3,0.2,0.4c0,0.1,0,0.1,0,0.1c0,0.1,0,0.2,0.1,0.2c0.1,0.2,0.1,0.4,0.1,0.7c0,0,0,0.1,0,0.1c0,0.2,0,0.4,0,0.7
			c0,0,0,0,0,0c-0.1,1.5-0.9,3-2.3,3.7c-0.4,0.2-0.8-0.1-0.8-0.5c-0.1-1.3-0.1-2.9-1.1-3.9c-1-1.1-2.7-1.1-4-1.2
			c-1.7-0.2-3.3-0.6-4.9-1c-1.3-0.3-2.6-0.7-3.8-1.3c-0.9-0.5-1.7-1.3-2-2.3c0-0.1-0.1-0.3-0.1-0.4c-0.1-0.3-0.1-0.5-0.1-0.8
			c0-1,0.5-1.9,1.1-2.6c1.5-1.7,3.7-2,5.9-1.9c0.5,0,1,0.1,1.5,0.1c0.3,0,0.5,0.1,0.8,0.1c1.5,0.2,3,0.4,4.4,0.7
			c0.4,0.1,0.7,0.2,1.1,0.3c1.6,0.4,3.3,0.9,4.8,1.6c0.1,0,0.2,0.1,0.3,0.1C189.2,37.9,188.7,38.8,188,38.5z"/>
	</g>
	<g>
		<path class="st0" d="M184.5,32.1c0,0.6-0.3,1.3-0.5,1.9c-0.2,0.6-0.4,1.2-0.6,1.7c0,0.1-0.1,0.2-0.1,0.3c-0.3,0.7-1.3,0.4-1.1-0.3
			c0-0.1,0.1-0.2,0.1-0.3c0.4-1,0.7-2,0.9-3.1c0-0.1,0-0.2,0.1-0.3c0,0,0,0,0-0.1c0,0,0,0-0.1,0.1c-0.2,0-0.5,0-0.7,0.1
			c-0.5,0.1-1,0.2-1.4,0.3c-1.5,0.4-2.9,1.2-4.1,2.2c-0.3,0.3-0.6,0.5-0.9,0.8c-0.5,0.5-1.3-0.3-0.8-0.8c0,0,0.1-0.1,0.1-0.1
			c1.7-1.7,3.8-2.9,6.1-3.4C182.6,31.1,184.5,30.6,184.5,32.1z"/>
	</g>
	<g>
		<path class="st0" d="M188.1,45.6c3.9,3.5,4,9.6,3,14.4c-0.6,2.6-1.8,5.2-4.3,6.6c-2.3,1.3-5.1,1.5-7.8,1.6
			c-3.2,0.1-6.7,0.2-9.5-1.6c-0.6-0.4,0-1.3,0.6-1c2.3,1.4,5.1,1.5,7.8,1.5c2.5-0.1,5.2-0.1,7.5-1c2.4-1,3.8-3.1,4.5-5.5
			c0.6-2.3,0.8-4.8,0.6-7.2c-0.2-2.6-1.1-5.2-3.1-7C186.8,45.9,187.6,45.1,188.1,45.6L188.1,45.6z"/>
	</g>
	<g>
		<path class="st0" d="M169.8,39.7c0,0.2-0.1,0.3-0.3,0.4c-0.2,0.1-0.5,0.2-0.7,0.3c-1,0.6-1.9,1.4-2.8,2.2
			c-1.3,1.1-2.4,2.4-3.4,3.8c-0.5,0.7-0.9,1.4-1.3,2.1c-0.3,0.7-0.6,1.3-1.1,1.9c-0.4,0.6-1,1-1.7,1.2c-0.8,0.3-1.7,0.1-2.6,0.1
			c-1.6,0-3.2,0.5-4.3,1.7c-1,1.1-1.5,2.6-1.7,4.1c-0.2,1.6-0.1,3.3,1.1,4.6c1.1,1.2,2.8,1.8,4.4,1.9c2,0.2,4.1,0,6-0.6
			c1.7-0.6,3.3-1.7,4-3.5c0.1-0.3,0.4-0.4,0.7-0.4c0,0,0,0,0,0c0,0,0,0,0,0c0.2,0.1,0.4,0.3,0.3,0.6c-0.2,0.6-0.5,1.1-0.8,1.6l0,0
			c-1.8,2.4-5.1,3.2-8,3.4c-0.4,0-0.7,0-1.1,0h0c-0.4,0-0.7,0-1.1-0.1c-0.3,0-0.7-0.1-1-0.1c-0.4-0.1-0.7-0.2-1.1-0.3
			c-2-0.6-3.8-1.8-4.4-4.1c-0.5-1.6-0.2-3.6,0.3-5.2c0.5-1.6,1.4-3,2.9-3.9c0.7-0.4,1.6-0.7,2.4-0.9c0.9-0.1,1.8-0.1,2.7-0.1
			c1,0,1.7-0.4,2.2-1.2c0.5-0.7,0.8-1.5,1.2-2.3c1-1.8,2.3-3.4,3.8-4.9c1.2-1.2,2.6-2.4,4.1-3.2c0.1-0.1,0.2-0.1,0.3-0.1
			C169.4,38.9,169.7,39.3,169.8,39.7C169.8,39.6,169.8,39.6,169.8,39.7z"/>
	</g>
	<g>
		<path class="st0" d="M166.7,60.2c0.4,2.9,0,6.1-2.2,8.2c-2,2-5.5,2.4-7.7,0.4c-1.1-1-1.6-2.6-1.3-4.1c0.2-0.7,1.2-0.4,1.1,0.3
			c-0.4,1.4,0.4,2.8,1.7,3.5c1.3,0.7,3,0.6,4.4-0.1c2.9-1.6,3.3-5.3,2.9-8.2C165.5,59.5,166.6,59.5,166.7,60.2L166.7,60.2z"/>
	</g>
	<g>
		<path class="st0" d="M170.4,66.2c0,0.1,0,0.1-0.1,0.2c-0.1,0.2-0.1,0.3-0.2,0.5c-0.1,0.2-0.2,0.4-0.3,0.6
			c-1.3,2.6-3.9,4.2-6.6,5.1c-1.6,0.5-3.4,0.9-5.1,0.5c-1.6-0.4-2.8-1.8-3.6-3.2c-0.9-1.5-1.3-3.3-1.1-5c0-0.1,0-0.1,0-0.2
			c0.1-0.7,1.2-0.7,1.1,0c0,0.2,0,0.3,0,0.5c-0.1,1.6,0.3,3.3,1.3,4.6c0.5,0.7,1.1,1.4,1.9,1.9c0.9,0.5,1.9,0.5,2.9,0.4
			c3.6-0.5,7.7-2.3,8.8-6.1c0.1-0.5,0.7-0.5,0.9-0.2l0,0C170.3,65.8,170.4,66,170.4,66.2z"/>
	</g>
	<g>
		<path class="st0" d="M210.4,64.3c-0.1,0.1-0.2,0.1-0.3,0c0,0-0.1,0-0.1,0c-0.6-0.2-1.3-0.5-2-0.8c-1.1-0.5-2.1-1.1-2.9-2
			c-0.5-0.6-1.2-1.6-0.8-2.3c0.2-0.5,0.8-0.6,1.2-0.7c0.4-0.2,0.9-0.3,1.3-0.5c-0.8-1.6-2.1-2.9-3.8-3.7c-0.4-0.2-0.4-0.8,0-1
			c1.2-0.6,2.4-1.3,3.4-2.3c0.5-0.4,0.9-0.9,1.2-1.5c0.1-0.3,0.3-0.6,0.3-0.9c0-0.1,0.1-0.3,0.1-0.5c0-0.2,0-0.1-0.2-0.2
			c-0.3,0-0.7,0.1-1,0.1c-0.4,0-0.8,0.1-1.3,0.1c-0.8,0-1.7-0.1-2.5-0.2c-1.6-0.2-3.2-0.7-4.7-1.4c-1.1-0.5-2.3-1.3-2.7-2.4
			c-0.1-0.3-0.1-0.6-0.1-0.9c0-0.7,1.1-0.7,1.1,0c0,0.1,0,0.1,0,0.1c0.1,1.5,2.2,2.2,3.4,2.6c1.7,0.6,3.4,0.9,5.2,1
			c0.8,0,1.6-0.1,2.5-0.1c0.6,0,1.2,0.3,1.4,0.9c0.1,0.6-0.1,1.4-0.4,1.9c-0.3,0.6-0.7,1.2-1.1,1.7c-0.9,1-2,1.7-3.1,2.3
			c1.6,1,2.9,2.5,3.6,4.3c0.1,0.3-0.1,0.6-0.4,0.7c-0.5,0.2-0.9,0.3-1.3,0.5c-0.3,0.1-0.5,0.2-0.8,0.3c-0.2,0.1-0.3,0-0.3,0.2
			c0,0.2,0.3,0.6,0.4,0.8c0.2,0.3,0.5,0.5,0.7,0.7c1.1,0.9,2.4,1.4,3.7,1.9c0,0,0.1,0,0.1,0C210.8,63.5,210.7,64.1,210.4,64.3z"/>
	</g>
	<g>
		<path class="st0" d="M229.6,82.6c0,2.3-0.3,4.6-1.1,6.8c-0.1,0.4-0.3,0.7-0.4,1c-0.7,1.5-1.7,3-2.9,4.1c-0.5,0.5-1.3-0.3-0.8-0.8
			c2.9-2.6,4-6.5,4.1-10.3c0.1-4.2-0.8-8.7-3-12.3c-2.1-3.4-5.4-6.1-9.4-6.8c-1.9-0.3-3.8-0.2-5.7,0c-0.1,0-0.2,0-0.3,0
			c-0.4,0.1-0.8,0.1-1.2,0.2c-1.2,0.2-2.3,0.4-3.5,0.6c-1.2,0.3-2.4,0.6-3.6,0.7c-2.5,0.3-4.6-0.7-6.3-2.4c-1.5-1.5-2.6-3.3-4.1-4.8
			c-0.2-0.2-0.5-0.5-0.7-0.7c-0.5-0.5,0.2-1.2,0.8-0.8c0,0,0.1,0.1,0.1,0.1c1.7,1.4,2.8,3.3,4.3,4.9c0.7,0.8,1.5,1.5,2.4,1.9
			c1.1,0.6,2.3,0.7,3.5,0.5c1.2-0.2,2.4-0.5,3.6-0.8c0.9-0.2,1.7-0.3,2.6-0.5c0.4-0.1,0.8-0.1,1.1-0.2c0.3,0,0.7-0.1,1-0.1
			c2-0.2,4.1-0.4,6.2,0c1.1,0.2,2.2,0.5,3.2,1c0.4,0.2,0.7,0.4,1.1,0.6c2.2,1.3,4.1,3.1,5.5,5.3c0.8,1.3,1.5,2.7,2,4.2
			c0.1,0.3,0.3,0.7,0.4,1.1C229.3,77.7,229.6,80.2,229.6,82.6z"/>
	</g>
	<g>
		<path class="st0" d="M225.1,99.7c-0.9,0.4-1.8,0.7-2.8,0.9c-0.5,0.1-0.9,0.2-1.4,0.2c-0.3,0-0.7,0-1,0c-0.1,0-0.2,0-0.2,0
			c-0.4,0-0.9-0.1-1.3-0.1c-1.1-0.2-2.2-0.5-3.1-1.2c-1.4-1.1-1.5-2.9-1.7-4.5c0-0.2-0.1-0.4-0.1-0.6c0-0.4-0.1-0.8-0.1-1.1
			c-0.1-1.3,0.1-2.6,0.5-3.8c0.6-1.8,1.7-3.3,3.2-4.5c0.6-0.4,1.3,0.3,0.8,0.8c-1.4,1.1-2.5,2.7-3,4.4c-0.3,1.1-0.4,2.2-0.3,3.4
			c0,0.1,0,0.2,0,0.3c0.1,0.9,0.2,1.9,0.4,2.8c0.2,0.9,0.4,1.7,1.2,2.2c0.8,0.5,1.7,0.7,2.6,0.9c2,0.3,4.1,0,6-0.8
			C225.1,98.4,225.7,99.4,225.1,99.7z"/>
	</g>
	<g>
		<path class="st0" d="M232.1,102.6c-0.6,1.4-1.2,2.7-1.9,4.1c-0.3,0.6-0.7,1.2-1.1,1.8c-0.4,0.6-0.8,1.2-1.4,1.6
			c-1.1,0.8-2.8,0.4-4,0.1c-1.4-0.4-2.7-1.1-4-1.9c-0.6-0.3-1.4-0.7-1.6-1.4c-0.3-0.8,0.1-1.5,0.5-2.2c0.7-1.4,1.5-2.7,2.3-4
			c0.1-0.2,0.3-0.5,0.5-0.7c0.4-0.6,1.3-0.1,1,0.5c0,0,0,0,0,0c-0.5,0.7-0.9,1.4-1.3,2.1c-0.2,0.3-0.4,0.7-0.6,1
			c-0.1,0.1-0.2,0.3-0.2,0.4c-0.3,0.6-0.7,1.1-0.9,1.7c-0.2,0.3-0.3,0.6,0,0.9c0.2,0.2,0.6,0.4,0.9,0.5c1.1,0.6,2.2,1.2,3.3,1.7
			c0.5,0.2,1.1,0.4,1.7,0.5c0.6,0.1,1.4,0.2,1.9-0.1c0.5-0.3,0.9-0.9,1.2-1.4c0.1-0.2,0.3-0.4,0.4-0.6c0.2-0.3,0.4-0.6,0.6-0.9v0
			c0,0,0-0.1,0.1-0.1c0.6-1.1,1.1-2.3,1.6-3.4c1-2.3,2.1-4.8,1.8-7.4c-0.3-2.4-2.1-4.4-4.5-4.9c-0.1,0-0.2-0.1-0.4-0.1
			c-0.7-0.1-0.4-1.2,0.3-1.1c0.2,0,0.3,0.1,0.5,0.1c2.2,0.6,4.1,2.3,4.8,4.5C234.4,96.8,233.3,99.9,232.1,102.6z"/>
	</g>
	<g>
		<path class="st0" d="M229,107.4c-2.6-1.7-5.5-3-8.6-3.8c-0.7-0.2-0.4-1.2,0.3-1.1c3.1,0.8,6.1,2.1,8.8,3.9
			C230.1,106.9,229.5,107.8,229,107.4L229,107.4z"/>
	</g>
	<g>
		<path class="st0" d="M214.4,93.6c0,0.1-0.1,0.2-0.3,0.3c-0.3,0.1-0.5,0.2-0.8,0.3c-1.2,0.4-2.4,0.8-3.6,1
			c-0.4,0.1-0.8,0.1-1.2,0.2c-1.6,0.2-3.3,0.3-4.9,0.1c-0.2,0-0.4,0-0.6,0c-0.7-0.1-0.7-1.2,0-1.1c0.2,0,0.3,0,0.5,0
			c3.2,0.2,6.7-0.2,9.7-1.4c0.1,0,0.2-0.1,0.3-0.1c0.4-0.2,0.7,0.1,0.8,0.4C214.4,93.4,214.5,93.5,214.4,93.6z"/>
	</g>
	<g>
		<path class="st0" d="M203.7,95.6c0,0.5,0,1-0.2,1.4c-0.3,1.5-1.2,3-2.8,3.6c-1,0.3-2.2,0.4-3.3,0.2c-0.1,0-0.1,0-0.2,0h0
			c-0.3-0.1-0.5-0.1-0.7-0.2c0,0,0,0,0,0c0,0,0,0,0,0c-0.7-0.3-0.4-1.3,0.3-1.1c0.1,0,0.2,0.1,0.3,0.1c1,0.3,2.2,0.4,3.2,0.1
			c1.4-0.4,2.1-1.9,2.2-3.2c0.2-1.7-0.3-3.5-1.1-5.1c-0.7-1.6-1.7-3-2.8-4.4c-0.5-0.6,0.3-1.3,0.8-0.8c1.3,1.5,2.4,3.2,3.1,5.1
			c0.5,1.1,0.8,2.2,1,3.3C203.7,94.8,203.7,95.2,203.7,95.6z"/>
	</g>
	<g>
		<path class="st0" d="M197.4,105c-0.8,1.2-2.5,1.6-3.8,2c-1.4,0.4-3,0.7-4.5,0.3c-3.2-1-3.6-4.6-3.9-7.5c-0.1-0.7-0.2-1.4-0.3-2.2
			c-0.1-0.4-0.1-0.8-0.2-1.1c-0.1-0.8-0.2-1.6-0.2-2.4c0-0.8,0.1-1.6,0.3-2.3c0.1-0.4,0.3-0.7,0.5-1c0.2-0.4,0.5-0.7,0.8-1
			c1.3-1.2,3.1-1.2,4.7-1c1.9,0.3,3.9,0.7,5.6,1.5c0.6,0.3,0.1,1.3-0.6,1c-1.4-0.6-2.9-0.9-4.3-1.2c-1.3-0.2-2.7-0.5-4,0.1
			c-3,1.3-1.8,5.7-1.5,8.2c0.2,1.4,0.3,2.9,0.6,4.3c0,0.1,0,0.1,0.1,0.2v0c0.1,0.4,0.2,0.8,0.4,1.2v0c0.3,0.7,0.7,1.3,1.3,1.8
			c1.1,0.8,2.5,0.7,3.8,0.5c1.2-0.2,2.5-0.6,3.6-1.2c0.7-0.4,1-0.9,1-1.7c0-0.4-0.1-0.9-0.2-1.3v0c-0.1-0.4-0.2-0.8-0.3-1.2
			c0,0,0,0,0,0c-0.4-1.7-1.1-3.3-1.9-4.8c-0.4-0.6,0.6-1.2,1-0.6c0.7,1.3,1.4,2.7,1.8,4.2c0.1,0.2,0.1,0.5,0.2,0.7
			c0.1,0.2,0.1,0.4,0.1,0.6c0.2,0.7,0.3,1.4,0.4,2C197.9,103.5,197.9,104.3,197.4,105z"/>
	</g>
	<g>
		<path class="st0" d="M197.2,101.3c-2.8,2.9-7.1,3.3-10.8,2.3c-0.7-0.2-0.4-1.2,0.3-1.1c3.4,0.9,7.2,0.6,9.7-2.1
			C196.9,100,197.7,100.8,197.2,101.3L197.2,101.3z"/>
	</g>
	<g>
		<path class="st0" d="M185.3,97.4c-0.1,0.1-0.3,0.1-0.4,0.2c-2.9,1.4-4,4.9-4.4,7.9c-0.1,0.7-0.1,1.7-0.6,2.3
			c-0.5,0.6-1.2,0.7-1.9,0.7c-1.7,0.1-3.5-0.1-5.1-0.6c-1.3-0.4-3.4-1-3.6-2.6c-0.1-0.7,0.1-1.5,0.2-2.2c0.1-0.7,0.3-1.4,0.4-2.1
			c0.7-2.8,1.7-5.6,3.2-8.1c1.5-2.5,3.4-4.8,5.8-6.3c0.2-0.1,0.4-0.3,0.6-0.4c0.6-0.4,1.2,0.6,0.6,1c-0.1,0.1-0.2,0.1-0.4,0.2
			c-4.5,2.7-7,7.7-8.4,12.5c-0.2,0.7-0.4,1.3-0.5,2v0c-0.1,0.4-0.2,0.7-0.2,1.1c-0.1,0.2-0.1,0.5-0.1,0.7c-0.1,0.6-0.3,1.4,0.1,1.9
			c0.5,0.6,1.5,0.8,2.2,1.1c1.5,0.5,3.2,0.8,4.8,0.7c0.3,0,0.7,0,1-0.1c0.4-0.1,0.5-0.4,0.5-0.8c0.1-0.5,0.2-0.9,0.2-1.4v0
			c0.1-0.4,0.1-0.8,0.2-1.1c0,0,0,0,0-0.1v0c0.6-3.1,2.1-6.1,5.1-7.5c0.1,0,0.2-0.1,0.3-0.1C185.6,96.1,185.9,97.1,185.3,97.4z"/>
	</g>
	<g>
		<path class="st0" d="M184.8,91.7C184.8,91.7,184.7,91.7,184.8,91.7c-1.8-1.4-3.5-2.8-5-4.3c-0.3-0.3-0.5-0.5-0.8-0.8
			c-0.8-0.9-1.6-1.8-2.3-2.7c-1.1-1.5-2-3.2-2.5-5c-0.7-2.1-0.9-4.2-1.5-6.3c-0.5-1.9-1.3-3.7-2.8-5.1c-0.1-0.1-0.3-0.2-0.4-0.4
			c-0.3-0.2-0.2-0.5,0-0.7c0.2-0.2,0.5-0.3,0.8-0.1c0,0,0,0,0.1,0.1c0.4,0.3,0.7,0.6,1,1c2.2,2.6,2.7,6.2,3.4,9.5
			c0.5,2,1.2,3.8,2.3,5.5c1,1.6,2.3,3,3.6,4.3c1.5,1.4,3.1,2.7,4.7,4c0.1,0.1,0.2,0.1,0.2,0.2C186,91.3,185.3,92,184.8,91.7z"/>
	</g>
	<g>
		<path class="st0" d="M219.7,100.5c0,0.1-0.1,0.1-0.1,0.1c-1.4,1.8-2.8,3.7-3.5,5.8c-0.4,1.1-0.5,2.3-1.1,3.2
			c-0.5,0.8-1.3,1.3-2.2,1.7c-2.3,0.8-4.6-0.1-6.6-1.2c-1-0.6-1.9-1.2-1.7-2.4c0.1-0.6,0.3-1.1,0.5-1.7c0.2-0.7,0.5-1.4,0.7-2.1
			c1-2.9,2-5.7,3-8.6c0.1-0.2,0.1-0.4,0.2-0.6c0.2-0.7,1.3-0.4,1.1,0.3c0,0,0,0.1,0,0.1c-0.8,2.4-1.7,4.8-2.5,7.2
			c-0.3,0.8-0.5,1.5-0.8,2.2c-0.1,0.4-0.2,0.7-0.4,1.1c-0.1,0.2-0.1,0.3-0.2,0.5c-0.2,0.5-0.4,1-0.5,1.5c-0.1,0.7,0.1,1,0.6,1.3
			c1.8,1,4,2.1,6.1,1.4c0.9-0.3,1.7-0.9,2.1-1.8c0-0.1,0.1-0.1,0.1-0.2c0.1-0.4,0.2-0.7,0.3-1.1c0.1-0.5,0.3-1.1,0.5-1.6
			c0.8-1.9,1.9-3.6,3.1-5.1c0.2-0.3,0.4-0.5,0.6-0.8C219.4,99.2,220.1,100,219.7,100.5z"/>
	</g>
	<g>
		<path class="st0" d="M248.7,72.6c-0.6,2.8-3.9,3.8-6.4,4c-2.8,0.2-5.7-0.4-8.1-1.8c0.1,1.1,0.1,2.2-0.2,3.3
			c-0.1,0.4-0.5,0.5-0.8,0.3c-0.9-0.5-1.5-1.4-2.2-2.1c-0.6-0.7-1.6-1.5-2.4-1c0,0-0.1,0.1-0.1,0.1c-0.6,0.4-1.1-0.6-0.6-1
			c0.1-0.1,0.2-0.1,0.3-0.2c1-0.4,2.1-0.1,2.9,0.6c0.8,0.6,1.3,1.5,2,2.1c0.1-1,0.1-2.1-0.2-3.1c-0.1-0.4,0.4-0.9,0.8-0.6
			c2.4,1.6,5.2,2.4,8.1,2.3c2-0.1,4.9-0.6,5.7-2.7c-1.9-0.5-3.8-1.4-5.4-2.6c-1.7-1.3-3.1-2.9-4.3-4.7c-1.1-1.6-2.1-3.4-3.7-4.5
			c-2.1-1.4-4.6-0.8-6.8,0c-2.4,0.9-4.6,2.2-6.7,3.7c-0.2,0.2-0.5,0.3-0.7,0.5c-0.6,0.4-1.1-0.5-0.6-1c0.1,0,0.1-0.1,0.2-0.1
			c2-1.5,4.2-2.8,6.5-3.8c2.2-1,4.8-1.9,7.2-1c1.9,0.7,3.3,2.2,4.4,3.9c1.2,1.8,2.3,3.6,4,5.1c1.9,1.7,4.3,3,6.8,3.6
			C248.6,72,248.8,72.3,248.7,72.6z"/>
	</g>
	<g>
		<path class="st0" d="M214.9,108.4c-1.6-0.3-3.2-0.5-4.8-0.9c-0.7-0.2-1.4-0.5-2.1-0.9c-0.8-0.4-1.5-0.8-2.3-1.2
			c-0.6-0.3-0.1-1.3,0.6-1c0.7,0.4,1.5,0.8,2.2,1.1c0.7,0.3,1.3,0.7,2,0.8c1.5,0.3,3.1,0.6,4.7,0.8
			C215.9,107.5,215.6,108.6,214.9,108.4L214.9,108.4z"/>
	</g>
	<g>
		<path class="st0" d="M179.5,105.2c-0.4-0.6-1.3-0.7-2-0.9c-0.8-0.2-1.5-0.4-2.3-0.6c-1.6-0.4-3.3-0.6-4.9-0.8
			c-0.7-0.1-0.7-1.2,0-1.1c1.8,0.2,3.6,0.4,5.4,0.8c0.9,0.2,1.8,0.4,2.7,0.7c0.7,0.2,1.5,0.4,2,1C180.7,105,179.9,105.8,179.5,105.2
			L179.5,105.2z"/>
	</g>
</g>
<g>
	<circle class="st0" cx="131.2" cy="58.1" r="1"/>
	<circle class="st0" cx="135.6" cy="58.1" r="1"/>
	<circle class="st0" cx="153.2" cy="58.1" r="1"/>
	<circle class="st0" cx="157.7" cy="58.1" r="1"/>
</g>
<path class="st33" d="M155.7,34.3c0-3.2-2.6-5.9-5.9-5.9c-3.2,0-5.7,2.5-5.9,5.6l0,0l0,0c-0.1-3.1-2.7-5.6-5.9-5.6
	c-3.2,0-5.9,2.6-5.9,5.9c0,2.1,1.1,3.9,2.7,4.9l0,0l4.5,2.6l4.5,2.6l4.5-2.6l4.5-2.6l0,0C154.6,38.2,155.7,36.4,155.7,34.3z"/>
<path class="st0" d="M149.8,28c-2.7,0-5,1.7-5.9,4.1c-0.9-2.4-3.2-4.1-5.9-4.1c-3.5,0-6.3,2.8-6.3,6.3c0,1.9,0.9,3.7,2.4,4.9L144,45
	l9.8-5.8c1.5-1.2,2.4-3,2.4-4.9C156.1,30.8,153.3,28,149.8,28z M152.8,38.9L144,44l-8.5-4.9l-0.3-0.2c-1.6-1-2.5-2.7-2.5-4.6
	c0-3,2.5-5.5,5.5-5.5c2.9,0,5.3,2.3,5.5,5.2l0,0.7l0.4,0l0.4,0l0-0.7c0.1-2.9,2.5-5.2,5.5-5.2c3,0,5.5,2.5,5.5,5.5
	C155.3,36.2,154.4,37.9,152.8,38.9z"/>
</svg>
