<svg width="68" height="97" viewBox="0 0 68 97" fill="none" xmlns="http://www.w3.org/2000/svg">
<path d="M66.1414 50.5537C66.1414 68.305 51.7512 82.6952 33.9999 82.6952C16.2486 82.6952 1.8584 68.305 1.8584 50.5537" stroke="black" stroke-width="2.5209" stroke-miterlimit="10" stroke-linecap="round" stroke-linejoin="round"/>
<path d="M34.0445 71.981C21.9246 71.981 12.0996 62.1558 12.0996 50.0361V23.2147C12.0996 11.0948 21.9248 1.26978 34.0445 1.26978C46.1644 1.26978 55.9894 11.0948 55.9894 23.2147V50.0361C55.9894 62.1558 46.1644 71.981 34.0445 71.981Z" stroke="black" stroke-width="2.5209" stroke-miterlimit="10" stroke-linecap="round" stroke-linejoin="round"/>
<path d="M34 82.6953V95.5519" stroke="black" stroke-width="2.5209" stroke-miterlimit="10" stroke-linecap="round" stroke-linejoin="round"/>
<path d="M17.7148 95.552H51.9991" stroke="black" stroke-width="2.5209" stroke-miterlimit="10" stroke-linecap="round" stroke-linejoin="round"/>
<path d="M45.5708 24.8403H54.1419" stroke="black" stroke-width="2.5209" stroke-miterlimit="10" stroke-linecap="round" stroke-linejoin="round"/>
<path d="M45.5708 35.5547H54.1419" stroke="black" stroke-width="2.5209" stroke-miterlimit="10" stroke-linecap="round" stroke-linejoin="round"/>
<path d="M45.5708 46.2681H54.1419" stroke="black" stroke-width="2.5209" stroke-miterlimit="10" stroke-linecap="round" stroke-linejoin="round"/>
<path d="M13.4297 24.8403H22.0007" stroke="black" stroke-width="2.5209" stroke-miterlimit="10" stroke-linecap="round" stroke-linejoin="round"/>
<path d="M13.4297 35.5547H22.0007" stroke="black" stroke-width="2.5209" stroke-miterlimit="10" stroke-linecap="round" stroke-linejoin="round"/>
<path d="M13.4297 46.2681H22.0007" stroke="black" stroke-width="2.5209" stroke-miterlimit="10" stroke-linecap="round" stroke-linejoin="round"/>
</svg>
